<svg width="1900" height="1900" viewBox="0 0 1900 1900" fill="none" xmlns="http://www.w3.org/2000/svg">
<g clip-path="url(#clip0_401_159)">
<path d="M619.135 401.604H349.087V451.136H611.465H619.135V500.668V550.2V597.934H611.45H330.859V548.402H600.921V499.762H338.544H330.859V451.136V402.51V352.072H338.558H619.135V401.604Z" fill="#6F4B6C"/>
<path d="M1424.35 315.786C1511.44 315.786 1582.03 245.19 1582.03 158.105C1582.03 71.0201 1511.44 0.423828 1424.35 0.423828C1337.27 0.423828 1266.67 71.0201 1266.67 158.105C1266.67 245.19 1337.27 315.786 1424.35 315.786Z" fill="#6F4B6C"/>
<path d="M1424.35 287.738C1495.95 287.738 1553.98 229.699 1553.98 158.106C1553.98 86.5118 1495.95 28.4736 1424.35 28.4736C1352.76 28.4736 1294.72 86.5118 1294.72 158.106C1294.72 229.699 1352.76 287.738 1424.35 287.738Z" fill="#FF9300"/>
<path d="M93.2194 13.0618V259.9C93.2194 266.863 91.323 272.51 88.9738 272.51H5.83104C2.05247 272.51 0.156107 258.924 2.83083 250.985L85.9736 4.14604C88.6483 -3.79321 93.2194 1.82512 93.2194 13.0618Z" fill="#3AB158"/>
<path d="M1.57129 13.0618V259.9C1.57129 266.863 3.46765 272.51 5.81688 272.51H88.9597C92.7382 272.51 94.6346 258.924 91.9599 250.985L8.81709 4.14604C6.14237 -3.79321 1.57129 1.82512 1.57129 13.0618Z" fill="#3AB158"/>
<path d="M154.851 35.1958L95.2711 276.416C93.587 283.223 90.3745 288.389 88.0819 287.95L6.8355 272.453C3.14183 271.746 4.55703 258.117 9.09981 250.858L149.912 25.1337C154.44 17.8738 157.554 24.2138 154.851 35.1958Z" fill="#3AB158"/>
<path d="M680.2 1626.87V1748.57C737.19 1748.57 783.354 1796.9 783.354 1856.48H906.264V1734.78C849.274 1734.78 803.082 1686.45 803.082 1626.87H680.2Z" fill="#53A4F7"/>
<path d="M903.943 1670.4C926.921 1670.4 945.549 1650.91 945.549 1626.87C945.549 1602.83 926.921 1583.34 903.943 1583.34C880.964 1583.34 862.336 1602.83 862.336 1626.87C862.336 1650.91 880.964 1670.4 903.943 1670.4Z" fill="#FF9300"/>
<path d="M1839.33 1073.43C1864.61 1073.43 1885.11 1052.93 1885.11 1027.64C1885.11 1002.36 1864.61 981.863 1839.33 981.863C1814.05 981.863 1793.55 1002.36 1793.55 1027.64C1793.55 1052.93 1814.05 1073.43 1839.33 1073.43Z" fill="#FF9300"/>
<path d="M680.201 1900.01C703.179 1900.01 721.807 1880.52 721.807 1856.48C721.807 1832.44 703.179 1812.95 680.201 1812.95C657.222 1812.95 638.594 1832.44 638.594 1856.48C638.594 1880.52 657.222 1900.01 680.201 1900.01Z" fill="#FF9300"/>
<path d="M1514.85 418.459C1533.39 418.459 1548.41 403.075 1548.41 384.098C1548.41 365.121 1533.39 349.737 1514.85 349.737C1496.32 349.737 1481.3 365.121 1481.3 384.098C1481.3 403.075 1496.32 418.459 1514.85 418.459Z" fill="#FF9300"/>
<path d="M1334.43 599.704C1352.96 599.704 1367.99 584.32 1367.99 565.343C1367.99 546.366 1352.96 530.982 1334.43 530.982C1315.9 530.982 1300.88 546.366 1300.88 565.343C1300.88 584.32 1315.9 599.704 1334.43 599.704Z" fill="#FF9300"/>
<path d="M1511.87 602.067C1530.4 602.067 1545.42 586.683 1545.42 567.706C1545.42 548.729 1530.4 533.345 1511.87 533.345C1493.34 533.345 1478.31 548.729 1478.31 567.706C1478.31 586.683 1493.34 602.067 1511.87 602.067Z" fill="#FF9300"/>
<path d="M1334.86 417.326C1353.39 417.326 1368.41 401.942 1368.41 382.965C1368.41 363.988 1353.39 348.604 1334.86 348.604C1316.32 348.604 1301.3 363.988 1301.3 382.965C1301.3 401.942 1316.32 417.326 1334.86 417.326Z" fill="#FF9300"/>
<path d="M792.142 1533.59C850.988 1533.59 898.692 1484.97 898.692 1425C898.692 1365.03 850.988 1316.42 792.142 1316.42C733.296 1316.42 685.592 1365.03 685.592 1425C685.592 1484.97 733.296 1533.59 792.142 1533.59Z" fill="#6F4B6C"/>
<path d="M792.141 1582.7C792.141 1503.85 792.141 1503.85 792.141 1582.7C770.22 1464.43 752.445 1446.78 633.328 1425C712.73 1425 712.73 1425 633.328 1425C752.431 1403.22 770.206 1385.58 792.141 1267.31C792.141 1346.15 792.141 1346.15 792.141 1267.31C814.063 1385.58 831.838 1403.22 950.955 1425C871.553 1425 871.553 1425 950.955 1425C831.852 1446.78 814.077 1464.43 792.141 1582.7Z" fill="#53A4F7"/>
<path d="M1424.64 633.329C1424.64 554.163 1424.64 554.163 1424.64 633.329C1402.73 514.58 1384.97 496.862 1265.94 474.997C1345.28 474.997 1345.28 474.997 1265.94 474.997C1384.95 453.132 1402.71 435.414 1424.64 316.665C1424.64 395.831 1424.64 395.831 1424.64 316.665C1446.54 435.414 1464.3 453.132 1583.34 474.997C1503.99 474.997 1503.99 474.997 1583.34 474.997C1464.32 496.862 1446.56 514.58 1424.64 633.329Z" fill="#6F4B6C"/>
<path d="M1015.53 1057.83C1015.53 1036.51 1015.53 1036.51 1015.53 1057.83C1009.49 1025.85 1004.59 1021.08 971.772 1015.19C993.651 1015.19 993.651 1015.19 971.772 1015.19C1004.59 1009.3 1009.49 1004.53 1015.53 972.551C1015.53 993.873 1015.53 993.873 1015.53 972.551C1021.57 1004.53 1026.47 1009.3 1059.29 1015.19C1037.41 1015.19 1037.41 1015.19 1059.29 1015.19C1026.47 1021.08 1021.57 1025.85 1015.53 1057.83Z" fill="#6F4B6C"/>
<path d="M0 266.821H102.078C220.516 266.821 316.678 362.984 316.678 481.422V627.541C316.678 631.531 313.438 634.786 309.433 634.786H214.6C96.1626 634.786 0 538.624 0 420.186V266.821Z" fill="#FF9300"/>
<path d="M266.057 1583.34H50.6074C22.6577 1583.34 0 1605.99 0 1633.94V1849.39C0 1877.34 22.6577 1900 50.6074 1900H266.057C294.007 1900 316.664 1877.34 316.664 1849.39V1633.94C316.664 1605.99 294.007 1583.34 266.057 1583.34Z" fill="#3AB158"/>
<path d="M85.832 1736.02L85.832 1642.29C85.832 1640.27 87.4738 1638.63 89.4975 1638.63H122.16C182.136 1638.63 230.833 1687.32 230.833 1747.3V1841.03C230.833 1843.05 229.191 1844.69 227.168 1844.69H194.505C134.529 1844.69 85.832 1796 85.832 1736.02Z" fill="#6F4B6C"/>
<path d="M474.983 1266.67C387.552 1266.67 316.665 1337.56 316.665 1425.02C316.665 1512.48 387.552 1583.34 474.983 1583.34C562.414 1583.34 633.329 1512.45 633.329 1425.02C633.329 1337.59 562.414 1266.67 474.983 1266.67ZM474.983 1464.66C453.373 1464.66 435.839 1446.68 435.839 1424.52C435.839 1402.36 453.373 1384.39 474.983 1384.39C496.593 1384.39 514.127 1402.36 514.127 1424.52C514.127 1446.68 496.593 1464.66 474.983 1464.66Z" fill="#FF9300"/>
<path d="M1719.86 1069.55L1630.42 985.345C1566.3 1053.46 1568.18 1159.37 1634.62 1221.94C1701.05 1284.47 1806.89 1279.96 1871.02 1211.85L1780.84 1126.95C1764.99 1143.79 1738.47 1144.61 1721.63 1128.76C1704.79 1112.91 1704.01 1086.39 1719.87 1069.55H1719.86Z" fill="#FF9300"/>
<path d="M158.332 950.008C247.582 950.008 319.933 879.443 319.933 792.398C319.933 705.352 247.582 634.787 158.332 634.787C69.0818 634.787 -3.26953 705.352 -3.26953 792.398C-3.26953 879.443 69.0818 950.008 158.332 950.008Z" fill="#6F4B6C"/>
<path d="M158.332 950.008C158.332 871.2 158.332 871.2 158.332 950.008C136.326 831.797 118.494 814.163 -1.0332 792.398C78.6518 792.398 78.6518 792.398 -1.0332 792.398C118.494 770.632 136.326 752.998 158.332 634.787C158.332 713.595 158.332 713.595 158.332 634.787C180.338 752.998 198.17 770.632 317.697 792.398C238.012 792.398 238.012 792.398 317.697 792.398C198.17 814.163 180.338 831.797 158.332 950.008Z" fill="#FF9300"/>
<path d="M1600.13 145.072H1607.44C1698.45 145.072 1772.34 218.96 1772.34 309.971V317.273H1765.03C1674.02 317.273 1600.13 243.386 1600.13 152.375V145.072Z" fill="#3AB158"/>
<path d="M1780.56 311.784L1772.68 316.844L1767.62 308.959C1704.62 210.794 1733.17 79.96 1831.34 16.9633L1839.22 11.9034L1844.28 19.7881C1907.28 117.953 1878.73 248.787 1780.56 311.784Z" fill="#3AB158"/>
<path d="M150.194 1527.25C206.93 1527.25 252.923 1481.26 252.923 1424.52C252.923 1367.79 206.93 1321.79 150.194 1321.79C93.4582 1321.79 47.4648 1367.79 47.4648 1424.52C47.4648 1481.26 93.4582 1527.25 150.194 1527.25Z" fill="#FF512F"/>
<path d="M150.195 1484.89C183.537 1484.89 210.567 1457.87 210.567 1424.52C210.567 1391.18 183.537 1364.15 150.195 1364.15C116.852 1364.15 89.8223 1391.18 89.8223 1424.52C89.8223 1457.87 116.852 1484.89 150.195 1484.89Z" fill="#FF9300"/>
<path d="M1698.59 825.825C1744.06 825.825 1780.93 788.961 1780.93 743.488C1780.93 698.015 1744.06 661.152 1698.59 661.152C1653.12 661.152 1616.25 698.015 1616.25 743.488C1616.25 788.961 1653.12 825.825 1698.59 825.825Z" fill="#53A4F7"/>
<path d="M1698.59 791.873C1725.31 791.873 1746.97 770.21 1746.97 743.487C1746.97 716.764 1725.31 695.102 1698.59 695.102C1671.87 695.102 1650.2 716.764 1650.2 743.487C1650.2 770.21 1671.87 791.873 1698.59 791.873Z" fill="#FF9692"/>
<path d="M1807.71 869.411C1829.94 869.411 1847.96 851.392 1847.96 829.163C1847.96 806.935 1829.94 788.915 1807.71 788.915C1785.49 788.915 1767.47 806.935 1767.47 829.163C1767.47 851.392 1785.49 869.411 1807.71 869.411Z" fill="#53A4F7"/>
<path d="M847.872 131.203C880.066 131.203 906.164 105.105 906.164 72.9111C906.164 40.7173 880.066 14.6191 847.872 14.6191C815.678 14.6191 789.58 40.7173 789.58 72.9111C789.58 105.105 815.678 131.203 847.872 131.203Z" fill="#FF9300"/>
<path d="M726.336 209.307C753.136 209.307 774.863 187.581 774.863 160.78C774.863 133.979 753.136 112.253 726.336 112.253C699.535 112.253 677.809 133.979 677.809 160.78C677.809 187.581 699.535 209.307 726.336 209.307Z" fill="#FF9300"/>
<path d="M847.872 259.66C867.428 259.66 883.28 243.807 883.28 224.252C883.28 204.697 867.428 188.844 847.872 188.844C828.317 188.844 812.464 204.697 812.464 224.252C812.464 243.807 828.317 259.66 847.872 259.66Z" fill="#FF9300"/>
<path d="M763.767 302.47C777.765 302.47 789.113 291.122 789.113 277.124C789.113 263.125 777.765 251.777 763.767 251.777C749.769 251.777 738.421 263.125 738.421 277.124C738.421 291.122 749.769 302.47 763.767 302.47Z" fill="#FF9300"/>
<path d="M1746.97 922.199C1760.04 922.199 1770.64 911.605 1770.64 898.537C1770.64 885.469 1760.04 874.875 1746.97 874.875C1733.91 874.875 1723.31 885.469 1723.31 898.537C1723.31 911.605 1733.91 922.199 1746.97 922.199Z" fill="#FF9692"/>
<path d="M488.724 1213.79C462.84 1201.39 437.112 1188.24 414.143 1171.03C391.175 1153.82 370.909 1132.27 358.639 1106.32C346.37 1080.36 342.69 1049.72 352.115 1022.61C356.757 1009.25 364.81 996.638 376.726 989.01C392.109 979.147 412.318 978.864 429.484 985.147C452.354 993.525 471.119 1014.27 473.935 1038.46C475.987 1056.09 469.902 1073.5 465.373 1090.66C458.071 1118.33 454.844 1148.45 465.444 1175.04L488.738 1213.79H488.724Z" fill="#FF9300"/>
<path d="M540.52 1236.23C533.091 1221.03 526.015 1205.55 521.698 1189.19C517.382 1172.83 515.896 1155.45 519.717 1138.96C523.538 1122.48 533.048 1106.97 547.328 1097.88C554.361 1093.41 562.697 1090.52 570.99 1091.36C581.703 1092.43 591.156 1099.69 596.789 1108.88C604.289 1121.12 605.379 1137.56 597.822 1149.78C592.317 1158.68 583.132 1164.49 574.768 1170.78C561.267 1180.9 548.757 1193.63 543.931 1209.79L540.52 1236.23Z" fill="#FF9300"/>
<path d="M1269.53 1267.31H950.955V1583.66H1269.53V1267.31Z" fill="#FF9300"/>
<path d="M1849.24 317.386H1632.78C1604.75 317.386 1582.02 340.113 1582.02 368.149V584.023C1582.02 612.059 1604.75 634.786 1632.78 634.786H1849.24C1877.27 634.786 1900 612.059 1900 584.023V368.149C1900 340.113 1877.27 317.386 1849.24 317.386Z" fill="#FF512F"/>
<path d="M1013.56 1325.56H1082.64C1152 1325.56 1208.31 1381.87 1208.31 1451.23V1522.14C1208.31 1524.48 1206.41 1526.39 1204.06 1526.39H1134.99C1065.63 1526.39 1009.32 1470.08 1009.32 1400.72V1329.8C1009.32 1327.47 1011.21 1325.56 1013.56 1325.56Z" fill="#6D312E"/>
<path d="M1725.08 537.902H1681.89C1680.45 537.902 1679.27 536.728 1679.27 535.284V491.965C1679.27 449.099 1714.07 414.299 1756.94 414.299H1800.13C1801.57 414.299 1802.75 415.474 1802.75 416.917V460.236C1802.75 503.103 1767.95 537.902 1725.08 537.902Z" fill="#6D312E"/>
<path d="M1740.9 1847.11C1800.62 1847.11 1849.02 1799.9 1849.02 1741.67C1849.02 1683.43 1800.62 1636.22 1740.9 1636.22C1681.19 1636.22 1632.78 1683.43 1632.78 1741.67C1632.78 1799.9 1681.19 1847.11 1740.9 1847.11Z" fill="#FF9300"/>
<path d="M1740.9 1847.13C1740.9 1794.41 1740.9 1794.41 1740.9 1847.13C1726.19 1768.05 1714.24 1756.24 1634.28 1741.68C1687.6 1741.68 1687.6 1741.68 1634.28 1741.68C1714.26 1727.12 1726.19 1715.32 1740.9 1636.24C1740.9 1688.96 1740.9 1688.96 1740.9 1636.24C1755.62 1715.32 1767.57 1727.12 1847.52 1741.68C1794.21 1741.68 1794.21 1741.68 1847.52 1741.68C1767.55 1756.24 1755.62 1768.05 1740.9 1847.13Z" fill="#FF512F"/>
<path d="M633.103 1108.1V1226.41C633.103 1248.64 650.594 1266.66 672.162 1266.66H791.548L633.103 1108.08V1108.1Z" fill="#FF9692"/>
<path d="M950.008 1108.1V1226.41C950.008 1248.64 932.516 1266.66 910.948 1266.66H791.562L950.008 1108.08V1108.1Z" fill="#FF9692"/>
<path d="M633.103 1108.57V990.255C633.103 968.022 650.594 950.007 672.162 950.007H791.548L633.103 1108.58V1108.57Z" fill="#FF9692"/>
<path d="M950.008 1108.57V990.255C950.008 968.022 932.516 950.007 910.948 950.007H791.562L950.008 1108.58V1108.57Z" fill="#FF9692"/>
<path d="M1215.02 0H1000.94C973.084 0 950.502 22.5817 950.502 50.4376V265.774C950.502 293.63 973.084 316.211 1000.94 316.211H1215.02C1242.87 316.211 1265.45 293.63 1265.45 265.774V50.4376C1265.45 22.5817 1242.87 0 1215.02 0Z" fill="#6F4B6C"/>
<path d="M1107.97 316.989C1107.97 237.767 1107.97 237.767 1107.97 316.989C1086.16 198.155 1068.47 180.409 950.007 158.53C1028.99 158.53 1028.99 158.53 950.007 158.53C1068.49 136.651 1086.16 118.919 1107.97 0.0703125C1107.97 79.293 1107.97 79.293 1107.97 0.0703125C1129.78 118.904 1147.47 136.651 1265.94 158.53C1186.95 158.53 1186.95 158.53 1265.94 158.53C1147.46 180.409 1129.78 198.141 1107.97 316.989Z" fill="#53A4F7"/>
<path d="M757.782 895.396H684.63C682.253 895.396 680.328 893.471 680.328 891.093V822.414C680.328 752.149 737.375 695.103 807.639 695.103H880.791C883.168 695.103 885.093 697.027 885.093 699.405V768.084C885.093 838.349 828.046 895.396 757.782 895.396Z" fill="#6F4B6C"/>
<path d="M882.885 633.343H843.429C842.184 633.343 841.165 632.324 841.165 631.078V595.741C841.165 558.705 871.238 528.632 908.273 528.632H947.729C948.974 528.632 949.993 529.651 949.993 530.897V566.234C949.993 603.27 919.92 633.343 882.885 633.343Z" fill="#53A4F7"/>
<path d="M778.967 633.343H739.511C738.266 633.343 737.247 632.324 737.247 631.078V595.741C737.247 558.705 767.32 528.632 804.355 528.632H843.811C845.056 528.632 846.075 529.651 846.075 530.897V566.234C846.075 603.27 816.002 633.343 778.967 633.343Z" fill="#53A4F7"/>
<path d="M675.049 633.343H635.593C634.348 633.343 633.329 632.324 633.329 631.078V595.741C633.329 558.705 663.402 528.632 700.437 528.632H739.893C741.138 528.632 742.157 529.651 742.157 530.897V566.234C742.157 603.27 712.084 633.343 675.049 633.343Z" fill="#53A4F7"/>
<path d="M882.885 527.359H843.429C842.184 527.359 841.165 526.34 841.165 525.095V489.758C841.165 452.722 871.238 422.649 908.273 422.649H947.729C948.974 422.649 949.993 423.668 949.993 424.913V460.251C949.993 497.286 919.92 527.359 882.885 527.359Z" fill="#53A4F7"/>
<path d="M778.967 527.359H739.511C738.266 527.359 737.247 526.34 737.247 525.095V489.758C737.247 452.722 767.32 422.649 804.355 422.649H843.811C845.056 422.649 846.075 423.668 846.075 424.913V460.251C846.075 497.286 816.002 527.359 778.967 527.359Z" fill="#53A4F7"/>
<path d="M675.049 527.359H635.593C634.348 527.359 633.329 526.34 633.329 525.095V489.758C633.329 452.722 663.402 422.649 700.437 422.649H739.893C741.138 422.649 742.157 423.668 742.157 424.913V460.251C742.157 497.286 712.084 527.359 675.049 527.359Z" fill="#53A4F7"/>
<path d="M882.885 421.389H843.429C842.184 421.389 841.165 420.37 841.165 419.124V383.787C841.165 346.751 871.238 316.678 908.273 316.678H947.729C948.974 316.678 949.993 317.697 949.993 318.943V354.28C949.993 391.316 919.92 421.389 882.885 421.389Z" fill="#53A4F7"/>
<path d="M778.967 421.389H739.511C738.266 421.389 737.247 420.37 737.247 419.124V383.787C737.247 346.751 767.32 316.678 804.355 316.678H843.811C845.056 316.678 846.075 317.697 846.075 318.943V354.28C846.075 391.316 816.002 421.389 778.967 421.389Z" fill="#53A4F7"/>
<path d="M675.049 421.389H635.593C634.348 421.389 633.329 420.37 633.329 419.124V383.787C633.329 346.751 663.402 316.678 700.437 316.678H739.893C741.138 316.678 742.157 317.697 742.157 318.943V354.28C742.157 391.316 712.084 421.389 675.049 421.389Z" fill="#53A4F7"/>
<path d="M0 967.33L0 950.008H17.3221C182.532 950.008 316.664 1084.14 316.664 1249.35V1266.67H299.342C134.132 1266.67 0 1132.54 0 967.33Z" fill="#FF9692"/>
<path d="M1269.52 1283.53V1266.2H1286.84C1452.05 1266.2 1586.18 1400.34 1586.18 1565.55V1582.87H1568.86C1403.65 1582.87 1269.52 1448.74 1269.52 1283.53Z" fill="#3AB158"/>
<path d="M1425 1900.01C1512.45 1900.01 1583.34 1828.98 1583.34 1741.36C1583.34 1653.73 1512.45 1582.7 1425 1582.7C1337.56 1582.7 1266.67 1653.73 1266.67 1741.36C1266.67 1828.98 1337.56 1900.01 1425 1900.01Z" fill="#FF9692"/>
<path d="M1425 1871.8C1496.89 1871.8 1555.17 1813.4 1555.17 1741.36C1555.17 1669.32 1496.89 1610.92 1425 1610.92C1353.11 1610.92 1294.83 1669.32 1294.83 1741.36C1294.83 1813.4 1353.11 1871.8 1425 1871.8Z" fill="#FF0037"/>
<path d="M791.293 1178.49C829.279 1178.49 860.072 1146.75 860.072 1107.6C860.072 1068.45 829.279 1036.72 791.293 1036.72C753.308 1036.72 722.515 1068.45 722.515 1107.6C722.515 1146.75 753.308 1178.49 791.293 1178.49Z" fill="#53A4F7"/>
<path d="M1351.51 1003.3C1358.11 1030.83 1365.47 1058.34 1377.27 1084.03C1389.07 1109.7 1405.57 1133.64 1427.92 1150.72C1450.26 1167.81 1478.84 1177.54 1506.7 1173.89C1520.43 1172.09 1534.14 1166.84 1543.87 1156.87C1556.43 1143.97 1560.82 1124.49 1558.29 1106.64C1554.92 1082.84 1538.88 1060.52 1516.3 1052.93C1499.84 1047.4 1481.94 1049.78 1464.59 1050.7C1436.62 1052.18 1407.13 1049.24 1383.85 1033.64L1351.5 1003.32L1351.51 1003.3Z" fill="#FF0037"/>
<path d="M1330.33 1088.98C1322.4 1103.54 1314.82 1118.4 1309.92 1134.22C1305.02 1150.04 1302.89 1166.97 1306.03 1183.22C1309.17 1199.48 1317.94 1215 1331.69 1224.44C1338.46 1229.1 1346.57 1232.24 1354.8 1231.74C1365.42 1231.12 1375.03 1224.38 1380.95 1215.64C1388.83 1203.96 1390.54 1187.93 1383.55 1175.7C1378.46 1166.79 1369.63 1160.74 1361.6 1154.28C1348.67 1143.86 1336.81 1130.91 1332.68 1114.93L1330.33 1088.96V1088.98Z" fill="#6F4B6C"/>
<path d="M1425 912.547C1447.9 912.547 1466.45 893.988 1466.45 871.096C1466.45 848.203 1447.9 829.645 1425 829.645C1402.11 829.645 1383.55 848.203 1383.55 871.096C1383.55 893.988 1402.11 912.547 1425 912.547Z" fill="#FF0037"/>
<path d="M1425 758.446C1447.9 758.446 1466.45 739.888 1466.45 716.995C1466.45 694.102 1447.9 675.544 1425 675.544C1402.11 675.544 1383.55 694.102 1383.55 716.995C1383.55 739.888 1402.11 758.446 1425 758.446Z" fill="#FF0037"/>
<path d="M1380.35 885.658C1403.25 885.658 1421.81 867.1 1421.81 844.207C1421.81 821.314 1403.25 802.756 1380.35 802.756C1357.46 802.756 1338.9 821.314 1338.9 844.207C1338.9 867.1 1357.46 885.658 1380.35 885.658Z" fill="#FF0037"/>
<path d="M1466.45 888.97C1489.35 888.97 1507.91 870.411 1507.91 847.518C1507.91 824.626 1489.35 806.067 1466.45 806.067C1443.56 806.067 1425 824.626 1425 847.518C1425 870.411 1443.56 888.97 1466.45 888.97Z" fill="#FF0037"/>
<path d="M1380.35 755.135C1403.25 755.135 1421.81 736.576 1421.81 713.683C1421.81 690.791 1403.25 672.232 1380.35 672.232C1357.46 672.232 1338.9 690.791 1338.9 713.683C1338.9 736.576 1357.46 755.135 1380.35 755.135Z" fill="#FF0037"/>
<path d="M1466.45 758.446C1489.35 758.446 1507.91 739.888 1507.91 716.995C1507.91 694.102 1489.35 675.544 1466.45 675.544C1443.56 675.544 1425 694.102 1425 716.995C1425 739.888 1443.56 758.446 1466.45 758.446Z" fill="#FF0037"/>
<path d="M1426.63 836.692C1449.52 836.692 1468.08 818.134 1468.08 795.241C1468.08 772.348 1449.52 753.79 1426.63 753.79C1403.74 753.79 1385.18 772.348 1385.18 795.241C1385.18 818.134 1403.74 836.692 1426.63 836.692Z" fill="#FF0037"/>
<path d="M1497.66 842.707C1520.55 842.707 1539.11 824.149 1539.11 801.256C1539.11 778.363 1520.55 759.805 1497.66 759.805C1474.77 759.805 1456.21 778.363 1456.21 801.256C1456.21 824.149 1474.77 842.707 1497.66 842.707Z" fill="#FF0037"/>
<path d="M1352.35 842.707C1375.24 842.707 1393.8 824.149 1393.8 801.256C1393.8 778.363 1375.24 759.805 1352.35 759.805C1329.45 759.805 1310.9 778.363 1310.9 801.256C1310.9 824.149 1329.45 842.707 1352.35 842.707Z" fill="#FF0037"/>
<path d="M1426.63 792.241C1449.52 792.241 1468.08 773.683 1468.08 750.79C1468.08 727.897 1449.52 709.339 1426.63 709.339C1403.74 709.339 1385.18 727.897 1385.18 750.79C1385.18 773.683 1403.74 792.241 1426.63 792.241Z" fill="#FF0037"/>
<path d="M1497.66 798.256C1520.55 798.256 1539.11 779.697 1539.11 756.805C1539.11 733.912 1520.55 715.354 1497.66 715.354C1474.77 715.354 1456.21 733.912 1456.21 756.805C1456.21 779.697 1474.77 798.256 1497.66 798.256Z" fill="#FF0037"/>
<path d="M1352.35 799.911C1375.24 799.911 1393.8 781.353 1393.8 758.46C1393.8 735.567 1375.24 717.009 1352.35 717.009C1329.45 717.009 1310.9 735.567 1310.9 758.46C1310.9 781.353 1329.45 799.911 1352.35 799.911Z" fill="#FF0037"/>
<path d="M591.976 1639.35C600.136 1639.35 606.75 1632.73 606.75 1624.57C606.75 1616.41 600.136 1609.8 591.976 1609.8C583.816 1609.8 577.201 1616.41 577.201 1624.57C577.201 1632.73 583.816 1639.35 591.976 1639.35Z" fill="#FF9692"/>
<path d="M590.66 1718.32C598.82 1718.32 605.435 1711.7 605.435 1703.54C605.435 1695.38 598.82 1688.77 590.66 1688.77C582.501 1688.77 575.886 1695.38 575.886 1703.54C575.886 1711.7 582.501 1718.32 590.66 1718.32Z" fill="#FF9692"/>
<path d="M590.702 1796.65C598.862 1796.65 605.477 1790.03 605.477 1781.87C605.477 1773.71 598.862 1767.1 590.702 1767.1C582.543 1767.1 575.928 1773.71 575.928 1781.87C575.928 1790.03 582.543 1796.65 590.702 1796.65Z" fill="#FF9692"/>
<path d="M589.387 1875.62C597.547 1875.62 604.162 1869 604.162 1860.84C604.162 1852.68 597.547 1846.07 589.387 1846.07C581.227 1846.07 574.612 1852.68 574.612 1860.84C574.612 1869 581.227 1875.62 589.387 1875.62Z" fill="#FF9692"/>
<path d="M354.904 1717.35C363.063 1717.35 369.678 1710.74 369.678 1702.58C369.678 1694.42 363.063 1687.81 354.904 1687.81C346.744 1687.81 340.129 1694.42 340.129 1702.58C340.129 1710.74 346.744 1717.35 354.904 1717.35Z" fill="#FF9692"/>
<path d="M353.601 1796.31C361.761 1796.31 368.375 1789.69 368.375 1781.53C368.375 1773.37 361.761 1766.76 353.601 1766.76C345.441 1766.76 338.826 1773.37 338.826 1781.53C338.826 1789.69 345.441 1796.31 353.601 1796.31Z" fill="#FF9692"/>
<path d="M355.017 1638.85C363.177 1638.85 369.791 1632.24 369.791 1624.08C369.791 1615.92 363.177 1609.3 355.017 1609.3C346.857 1609.3 340.242 1615.92 340.242 1624.08C340.242 1632.24 346.857 1638.85 355.017 1638.85Z" fill="#FF9692"/>
<path d="M353.63 1874.65C361.79 1874.65 368.405 1868.04 368.405 1859.88C368.405 1851.72 361.79 1845.11 353.63 1845.11C345.47 1845.11 338.855 1851.72 338.855 1859.88C338.855 1868.04 345.47 1874.65 353.63 1874.65Z" fill="#FF9692"/>
<path d="M512.598 1717.35C520.758 1717.35 527.373 1710.74 527.373 1702.58C527.373 1694.42 520.758 1687.81 512.598 1687.81C504.438 1687.81 497.823 1694.42 497.823 1702.58C497.823 1710.74 504.438 1717.35 512.598 1717.35Z" fill="#FF9692"/>
<path d="M511.281 1796.31C519.441 1796.31 526.056 1789.69 526.056 1781.53C526.056 1773.37 519.441 1766.76 511.281 1766.76C503.122 1766.76 496.507 1773.37 496.507 1781.53C496.507 1789.69 503.122 1796.31 511.281 1796.31Z" fill="#FF9692"/>
<path d="M472.874 1809.77C472.874 1775.72 472.874 1775.72 472.874 1809.77C463.222 1758.69 455.396 1751.08 402.991 1741.67C437.937 1741.67 437.937 1741.67 402.991 1741.67C455.41 1732.27 463.222 1724.64 472.874 1673.57C472.874 1707.62 472.874 1707.62 472.874 1673.57C482.525 1724.64 490.351 1732.26 542.756 1741.67C507.81 1741.67 507.81 1741.67 542.756 1741.67C490.337 1751.06 482.525 1758.69 472.874 1809.77Z" fill="#6F4B6C"/>
<path d="M512.711 1638.85C520.871 1638.85 527.486 1632.24 527.486 1624.08C527.486 1615.92 520.871 1609.3 512.711 1609.3C504.551 1609.3 497.937 1615.92 497.937 1624.08C497.937 1632.24 504.551 1638.85 512.711 1638.85Z" fill="#FF9692"/>
<path d="M552.238 1731.76C552.238 1697.71 552.238 1697.71 552.238 1731.76C542.586 1680.69 534.76 1673.07 482.355 1663.66C517.301 1663.66 517.301 1663.66 482.355 1663.66C534.774 1654.26 542.586 1646.64 552.238 1595.56C552.238 1629.61 552.238 1629.61 552.238 1595.56C561.89 1646.64 569.716 1654.25 622.12 1663.66C587.174 1663.66 587.174 1663.66 622.12 1663.66C569.701 1673.06 561.89 1680.69 552.238 1731.76Z" fill="#6F4B6C"/>
<path d="M511.324 1874.65C519.484 1874.65 526.099 1868.04 526.099 1859.88C526.099 1851.72 519.484 1845.1 511.324 1845.1C503.165 1845.1 496.55 1851.72 496.55 1859.88C496.55 1868.04 503.165 1874.65 511.324 1874.65Z" fill="#FF9692"/>
<path d="M550.978 1889.07C550.978 1855.02 550.978 1855.02 550.978 1889.07C541.326 1838 533.5 1830.39 481.096 1820.98C516.042 1820.98 516.042 1820.98 481.096 1820.98C533.515 1811.58 541.326 1803.95 550.978 1752.88C550.978 1786.93 550.978 1786.93 550.978 1752.88C560.63 1803.95 568.456 1811.56 620.86 1820.98C585.915 1820.98 585.915 1820.98 620.86 1820.98C568.442 1830.37 560.63 1838 550.978 1889.07Z" fill="#6F4B6C"/>
<path d="M434.281 1639.35C442.44 1639.35 449.055 1632.73 449.055 1624.57C449.055 1616.41 442.44 1609.8 434.281 1609.8C426.121 1609.8 419.506 1616.41 419.506 1624.57C419.506 1632.73 426.121 1639.35 434.281 1639.35Z" fill="#FF9692"/>
<path d="M432.965 1718.32C441.125 1718.32 447.74 1711.7 447.74 1703.54C447.74 1695.38 441.125 1688.77 432.965 1688.77C424.805 1688.77 418.19 1695.38 418.19 1703.54C418.19 1711.7 424.805 1718.32 432.965 1718.32Z" fill="#FF9692"/>
<path d="M394.556 1731.76C394.556 1697.71 394.556 1697.71 394.556 1731.76C384.905 1680.69 377.079 1673.07 324.674 1663.66C359.62 1663.66 359.62 1663.66 324.674 1663.66C377.093 1654.26 384.905 1646.64 394.556 1595.56C394.556 1629.61 394.556 1629.61 394.556 1595.56C404.208 1646.64 412.034 1654.25 464.439 1663.66C429.493 1663.66 429.493 1663.66 464.439 1663.66C412.02 1673.06 404.208 1680.69 394.556 1731.76Z" fill="#6F4B6C"/>
<path d="M433.007 1796.65C441.167 1796.65 447.782 1790.03 447.782 1781.87C447.782 1773.71 441.167 1767.1 433.007 1767.1C424.847 1767.1 418.232 1773.71 418.232 1781.87C418.232 1790.03 424.847 1796.65 433.007 1796.65Z" fill="#FF9692"/>
<path d="M431.692 1875.62C439.851 1875.62 446.466 1869 446.466 1860.84C446.466 1852.68 439.851 1846.07 431.692 1846.07C423.532 1846.07 416.917 1852.68 416.917 1860.84C416.917 1869 423.532 1875.62 431.692 1875.62Z" fill="#FF9692"/>
<path d="M393.283 1889.07C393.283 1855.02 393.283 1855.02 393.283 1889.07C383.631 1838 375.805 1830.39 323.4 1820.98C358.346 1820.98 358.346 1820.98 323.4 1820.98C375.819 1811.58 383.631 1803.95 393.283 1752.88C393.283 1786.93 393.283 1786.93 393.283 1752.88C402.934 1803.95 410.76 1811.56 463.165 1820.98C428.219 1820.98 428.219 1820.98 463.165 1820.98C410.746 1830.37 402.934 1838 393.283 1889.07Z" fill="#6F4B6C"/>
<path d="M478.45 675.544C407.28 675.544 349.582 731.826 349.582 801.256C349.582 870.685 407.28 926.954 478.45 926.954C549.62 926.954 607.346 870.671 607.346 801.256C607.346 731.84 549.62 675.544 478.45 675.544ZM478.45 832.73C460.859 832.73 446.594 818.465 446.594 800.874C446.594 783.283 460.859 769.018 478.45 769.018C496.041 769.018 510.306 783.283 510.306 800.874C510.306 818.465 496.041 832.73 478.45 832.73Z" fill="#FF9692"/>
<path d="M1427.85 780.424C1449.17 780.424 1466.46 763.139 1466.46 741.817C1466.46 720.496 1449.17 703.211 1427.85 703.211C1406.53 703.211 1389.24 720.496 1389.24 741.817C1389.24 763.139 1406.53 780.424 1427.85 780.424Z" fill="#6F4B6C"/>
<path d="M1425 844.207C1447.9 844.207 1466.45 825.649 1466.45 802.756C1466.45 779.863 1447.9 761.305 1425 761.305C1402.11 761.305 1383.55 779.863 1383.55 802.756C1383.55 825.649 1402.11 844.207 1425 844.207Z" fill="#FF0037"/>
<path d="M1480.31 824.72C1503.2 824.72 1521.76 806.161 1521.76 783.268C1521.76 760.376 1503.2 741.817 1480.31 741.817C1457.42 741.817 1438.86 760.376 1438.86 783.268C1438.86 806.161 1457.42 824.72 1480.31 824.72Z" fill="#FF0037"/>
<path d="M1372.77 820.078C1395.66 820.078 1414.22 801.52 1414.22 778.627C1414.22 755.734 1395.66 737.176 1372.77 737.176C1349.88 737.176 1331.32 755.734 1331.32 778.627C1331.32 801.52 1349.88 820.078 1372.77 820.078Z" fill="#FF0037"/>
<path d="M475.704 197.377C495.814 197.377 512.117 181.074 512.117 160.964C512.117 140.853 495.814 124.551 475.704 124.551C455.594 124.551 439.291 140.853 439.291 160.964C439.291 181.074 455.594 197.377 475.704 197.377Z" fill="#FF0037"/>
<path d="M474.968 11.4209C392.137 11.4209 324.972 76.9303 324.972 157.752C324.972 238.574 392.123 304.055 474.968 304.055C557.814 304.055 624.993 238.546 624.993 157.752C624.993 76.9586 557.814 11.4209 474.968 11.4209ZM474.968 254.962C421.078 254.962 377.348 211.247 377.348 157.342C377.348 103.437 421.064 59.7216 474.968 59.7216C528.873 59.7216 572.589 103.437 572.589 157.342C572.589 211.247 528.873 254.962 474.968 254.962Z" fill="#FF0037"/>
<path d="M1223.99 979.188C1224.46 979.882 1224.95 980.533 1225.42 981.226C1279.04 1061.55 1262.51 1166.72 1188.5 1216.13C1114.91 1265.27 1012.2 1240.76 958.328 1161.54C1045.74 1099.04 1132.02 1034.85 1223.99 979.188Z" fill="#3AB158"/>
<path d="M1208.38 987.481C1208.79 988.089 1209.23 988.67 1209.64 989.278C1257.06 1060.31 1242.44 1153.3 1176.99 1197C1111.92 1240.45 1021.11 1218.78 973.457 1148.71C1050.76 1093.45 1127.03 1036.69 1208.38 987.467V987.481Z" fill="#6F4B6C"/>
<path d="M1265.21 809.266V949.993H1124.49C1028.18 949.993 949.993 871.804 949.993 775.499V634.772H1090.72C1187.02 634.772 1265.21 712.962 1265.21 809.266Z" fill="#3AB158"/>
<path d="M1002.91 1688.78C1031.94 1688.78 1055.47 1665.25 1055.47 1636.22C1055.47 1607.19 1031.94 1583.66 1002.91 1583.66C973.879 1583.66 950.347 1607.19 950.347 1636.22C950.347 1665.25 973.879 1688.78 1002.91 1688.78Z" fill="#3AB158"/>
<path d="M1108.3 1688.78C1137.33 1688.78 1160.86 1665.25 1160.86 1636.22C1160.86 1607.19 1137.33 1583.66 1108.3 1583.66C1079.27 1583.66 1055.74 1607.19 1055.74 1636.22C1055.74 1665.25 1079.27 1688.78 1108.3 1688.78Z" fill="#53A4F7"/>
<path d="M1213.76 1688.78C1242.79 1688.78 1266.32 1665.25 1266.32 1636.22C1266.32 1607.19 1242.79 1583.66 1213.76 1583.66C1184.73 1583.66 1161.2 1607.19 1161.2 1636.22C1161.2 1665.25 1184.73 1688.78 1213.76 1688.78Z" fill="#3AB158"/>
<path d="M1002.91 1793.92C1031.94 1793.92 1055.47 1770.39 1055.47 1741.36C1055.47 1712.33 1031.94 1688.8 1002.91 1688.8C973.879 1688.8 950.347 1712.33 950.347 1741.36C950.347 1770.39 973.879 1793.92 1002.91 1793.92Z" fill="#53A4F7"/>
<path d="M1108.3 1793.92C1137.33 1793.92 1160.86 1770.39 1160.86 1741.36C1160.86 1712.33 1137.33 1688.8 1108.3 1688.8C1079.27 1688.8 1055.74 1712.33 1055.74 1741.36C1055.74 1770.39 1079.27 1793.92 1108.3 1793.92Z" fill="#FF0037"/>
<path d="M1213.76 1793.92C1242.79 1793.92 1266.32 1770.39 1266.32 1741.36C1266.32 1712.33 1242.79 1688.8 1213.76 1688.8C1184.73 1688.8 1161.2 1712.33 1161.2 1741.36C1161.2 1770.39 1184.73 1793.92 1213.76 1793.92Z" fill="#53A4F7"/>
<path d="M1002.91 1899.04C1031.94 1899.04 1055.47 1875.51 1055.47 1846.48C1055.47 1817.45 1031.94 1793.92 1002.91 1793.92C973.879 1793.92 950.347 1817.45 950.347 1846.48C950.347 1875.51 973.879 1899.04 1002.91 1899.04Z" fill="#3AB158"/>
<path d="M1108.3 1899.04C1137.33 1899.04 1160.86 1875.51 1160.86 1846.48C1160.86 1817.45 1137.33 1793.92 1108.3 1793.92C1079.27 1793.92 1055.74 1817.45 1055.74 1846.48C1055.74 1875.51 1079.27 1899.04 1108.3 1899.04Z" fill="#53A4F7"/>
<path d="M1213.76 1899.04C1242.79 1899.04 1266.32 1875.51 1266.32 1846.48C1266.32 1817.45 1242.79 1793.92 1213.76 1793.92C1184.73 1793.92 1161.2 1817.45 1161.2 1846.48C1161.2 1875.51 1184.73 1899.04 1213.76 1899.04Z" fill="#3AB158"/>
<path d="M1662.9 1425C1662.9 1385.58 1662.9 1385.58 1662.9 1425C1651.92 1365.86 1643.01 1357.05 1583.35 1346.16C1623.13 1346.16 1623.13 1346.16 1583.35 1346.16C1643.01 1335.28 1651.92 1326.45 1662.9 1267.32C1662.9 1306.75 1662.9 1306.75 1662.9 1267.32C1673.88 1326.46 1682.78 1335.28 1742.45 1346.16C1702.67 1346.16 1702.67 1346.16 1742.45 1346.16C1682.78 1357.05 1673.88 1365.88 1662.9 1425Z" fill="#3AB158"/>
<path d="M1820.45 1425C1820.45 1385.58 1820.45 1385.58 1820.45 1425C1809.47 1365.86 1800.57 1357.05 1740.9 1346.16C1780.68 1346.16 1780.68 1346.16 1740.9 1346.16C1800.57 1335.28 1809.47 1326.45 1820.45 1267.32C1820.45 1306.75 1820.45 1306.75 1820.45 1267.32C1831.43 1326.46 1840.33 1335.28 1900 1346.16C1860.22 1346.16 1860.22 1346.16 1900 1346.16C1840.33 1357.05 1831.43 1365.88 1820.45 1425Z" fill="#3AB158"/>
<path d="M1662.9 1582.7C1662.9 1543.27 1662.9 1543.27 1662.9 1582.7C1651.92 1523.56 1643.01 1514.74 1583.35 1503.86C1623.13 1503.86 1623.13 1503.86 1583.35 1503.86C1643.01 1492.98 1651.92 1484.14 1662.9 1425.02C1662.9 1464.44 1662.9 1464.44 1662.9 1425.02C1673.88 1484.16 1682.78 1492.98 1742.45 1503.86C1702.67 1503.86 1702.67 1503.86 1742.45 1503.86C1682.78 1514.74 1673.88 1523.57 1662.9 1582.7Z" fill="#3AB158"/>
<path d="M1820.45 1582.7C1820.45 1543.27 1820.45 1543.27 1820.45 1582.7C1809.47 1523.56 1800.57 1514.74 1740.9 1503.86C1780.68 1503.86 1780.68 1503.86 1740.9 1503.86C1800.57 1492.98 1809.47 1484.14 1820.45 1425.02C1820.45 1464.44 1820.45 1464.44 1820.45 1425.02C1831.43 1484.16 1840.33 1492.98 1900 1503.86C1860.22 1503.86 1860.22 1503.86 1900 1503.86C1840.33 1514.74 1831.43 1523.57 1820.45 1582.7Z" fill="#3AB158"/>
<path d="M1022.73 610.374C1010.42 585.792 998.69 560.729 991.416 534.223C984.142 507.702 981.467 479.497 987.425 452.651C993.383 425.804 1008.6 400.458 1031.65 385.471C1043.01 378.084 1056.52 373.272 1070 374.504C1087.44 376.074 1102.91 387.736 1112.19 402.567C1124.57 422.337 1126.6 449.056 1114.51 469.01C1105.71 483.559 1090.88 493.154 1077.36 503.484C1055.58 520.127 1035.46 541.03 1027.86 567.366L1022.72 610.374H1022.73Z" fill="#3AB158"/>
<path d="M1093 597.935C1098.76 582.792 1104.96 567.692 1113.56 553.965C1122.17 540.237 1133.36 527.826 1147.38 519.703C1161.41 511.594 1178.49 508.084 1194.19 512.117C1201.93 514.113 1209.4 518.047 1214.24 524.387C1220.51 532.581 1221.61 543.945 1218.88 553.894C1215.23 567.154 1204.45 578.688 1190.96 581.405C1181.14 583.386 1171.05 580.768 1161.18 579.028C1145.28 576.211 1128.17 575.815 1113.7 583.018L1092.98 597.935H1093Z" fill="#53A4F7"/>
<path d="M1122.59 504.844C1141.81 496.961 1160.93 488.526 1178.24 477.035C1195.54 465.558 1211.07 450.811 1221 432.584C1230.94 414.342 1234.87 392.364 1229.18 372.381C1226.38 362.531 1221.09 353.092 1212.8 347.092C1202.08 339.336 1187.51 338.289 1174.84 342.124C1157.97 347.233 1143.56 361.442 1140.52 378.792C1138.31 391.444 1141.99 404.266 1144.55 416.861C1148.69 437.155 1149.76 459.048 1141.02 477.799L1122.59 504.829V504.844Z" fill="#6F4B6C"/>
</g>
<defs>
<clipPath id="clip0_401_159">
<rect width="1900" height="1900" fill="white"/>
</clipPath>
</defs>
</svg>
