<svg width="35" height="34" viewBox="0 0 35 34" fill="none" xmlns="http://www.w3.org/2000/svg">
<path d="M3.82386 0C1.71775 0 0 1.68996 0 3.76199V30.0959C0 32.1679 1.71775 33.8579 3.82386 33.8579H30.5909C32.697 33.8579 34.4147 32.1679 34.4147 30.0959V3.76199C34.4147 1.68996 32.697 0 30.5909 0H3.82386ZM6.51251 8.81715H11.4716C15.8705 8.81715 16.6099 11.477 16.6099 13.1669C16.6099 15.6137 14.8996 16.3852 14.5187 16.5762C14.8996 16.7673 16.8489 17.2816 16.8489 20.1031C17.0431 23.4904 14.8921 24.8056 11.8301 24.8056H6.51251V8.81715ZM19.896 8.81715H26.9462V10.6981H19.896V8.81715ZM9.73888 11.4623V15.4006H11.4716C12.6217 15.4006 13.3835 15.0259 13.3835 13.5196C13.3835 12.2044 12.8084 11.4623 11.4716 11.4623H9.73888ZM24.0783 12.8143C26.7521 12.8143 28.6789 14.3058 28.6789 18.6336V19.9268H22.1664C22.1664 20.4925 22.2038 22.5719 24.4966 22.5719C26.0276 22.5719 26.7446 21.8298 27.1255 21.4551L28.4997 23.3361C28.3055 23.5271 26.9836 25.0407 24.4966 25.0407C21.6287 25.0407 19.2985 23.5271 19.2985 19.5741V18.6336C19.2985 14.3058 21.5913 12.8143 24.0783 12.8143ZM23.7199 15.2243C23.1448 15.2243 21.9872 15.4374 21.9872 17.6931H25.2136C25.2136 17.6931 25.6318 15.2243 23.7199 15.2243ZM9.73888 17.8694V22.2192H11.8301C12.9802 22.2192 13.5627 21.4183 13.5627 20.1031C13.7569 18.5968 13.2192 17.8694 12.069 17.8694H9.73888Z" fill="#FFFCDB"/>
</svg>
