<?xml version="1.0" encoding="utf-8"?>
<!-- Generator: Adobe Illustrator 27.8.1, SVG Export Plug-In . SVG Version: 6.00 Build 0)  -->
<svg version="1.0" id="Layer_1" xmlns="http://www.w3.org/2000/svg" xmlns:xlink="http://www.w3.org/1999/xlink" x="0px" y="0px"
	 viewBox="0 0 16 16" style="enable-background:new 0 0 16 16;" xml:space="preserve">
<style type="text/css">
	.st0{fill:#FF5423;}
	.st1{fill:#FFEBD2;}
	.st2{fill:#FF6A04;}
</style>
<g>
	<g>
		<circle class="st0" cx="4" cy="13.1" r="2.9"/>
		<circle class="st1" cx="4" cy="13.1" r="2.6"/>
		<path class="st2" d="M3.2,10.8l0.7,2c0,0,0.1,0,0.1,0l0.8-2c0,0,0,0,0,0C4.6,10.7,3.9,10.5,3.2,10.8C3.2,10.7,3.2,10.7,3.2,10.8
			L3.2,10.8z"/>
		<path class="st2" d="M3.2,15.4l0.7-2c0,0,0.1,0,0.1,0l0.8,2c0,0,0,0,0,0C4.6,15.4,3.9,15.6,3.2,15.4C3.2,15.4,3.2,15.4,3.2,15.4
			L3.2,15.4z"/>
		<path class="st2" d="M1.7,13.8l2-0.7c0,0,0-0.1,0-0.1l-2-0.8c0,0,0,0,0,0C1.6,12.4,1.5,13.1,1.7,13.8C1.7,13.8,1.7,13.8,1.7,13.8
			L1.7,13.8z"/>
		<path class="st2" d="M6.2,13.8l-2-0.7c0,0,0-0.1,0-0.1l2-0.8c0,0,0,0,0,0C6.3,12.4,6.5,13.1,6.2,13.8C6.3,13.8,6.3,13.8,6.2,13.8
			L6.2,13.8z"/>
		<path class="st2" d="M5,10.9l-0.9,1.9c0,0,0,0.1,0.1,0.1L6.1,12c0,0,0,0,0,0C6.1,11.8,5.7,11.2,5,10.9C5.1,10.9,5,10.9,5,10.9
			L5,10.9z"/>
		<path class="st2" d="M1.8,14.1l1.9-0.9c0,0,0.1,0,0.1,0.1l-0.9,1.9c0,0,0,0,0,0C2.7,15.2,2.2,14.8,1.8,14.1
			C1.8,14.2,1.8,14.1,1.8,14.1L1.8,14.1z"/>
		<path class="st2" d="M1.8,12l1.9,0.9c0,0,0.1,0,0.1-0.1l-0.9-1.9c0,0,0,0,0,0C2.7,11,2.2,11.3,1.8,12C1.8,12,1.8,12,1.8,12L1.8,12
			z"/>
		<path class="st2" d="M5.1,15.2l-0.9-1.9c0,0,0-0.1,0.1-0.1l1.9,0.9c0,0,0,0,0,0C6.1,14.3,5.7,14.9,5.1,15.2
			C5.1,15.2,5.1,15.2,5.1,15.2L5.1,15.2z"/>
	</g>
	<path class="st2" d="M13.4,8.1c-1.1-0.3-2.1,0.3-2.5,1.2v0l-1.6,2.7c0,0,0,0.1,0.1,0.1c0.1,0,0.3,0,0.5,0c0.3,0.1,0.5,0.5,0.5,0.8
		V16c0,0,0,0,0,0H15c0,0,0,0,0,0v-5.8C15,9.2,14.4,8.3,13.4,8.1z"/>
	<path class="st2" d="M7.9,11.9c0,0.1,0.1,0.1,0.2,0L15,0.1C15,0.1,15,0,14.9,0H8.8C8.7,0,8.6,0.1,8.6,0.2v7.2c0,0.1,0,0.2,0,0.3
		c0,0-0.1,0.4-0.6,0.4S7.4,7.6,7.4,7.6c0-0.1,0-0.2,0-0.3V0.2C7.4,0.1,7.3,0,7.3,0H1.2C1.1,0,1.1,0.1,1.1,0.1L7.9,11.9L7.9,11.9z"/>
</g>
</svg>
