<svg width="36" height="34" viewBox="0 0 36 34" fill="none" xmlns="http://www.w3.org/2000/svg">
<path d="M10.3526 0.69104C5.07378 0.69104 0.792969 4.81663 0.792969 9.90406V24.6449C0.792969 29.7323 5.07378 33.8579 10.3526 33.8579H25.648C30.9269 33.8579 35.2077 29.7323 35.2077 24.6449V9.90406C35.2077 4.81663 30.9269 0.69104 25.648 0.69104H10.3526ZM29.4719 4.37625C30.5273 4.37625 31.3838 5.20174 31.3838 6.21885C31.3838 7.23597 30.5273 8.06146 29.4719 8.06146C28.4165 8.06146 27.56 7.23597 27.56 6.21885C27.56 5.20174 28.4165 4.37625 29.4719 4.37625ZM18.0003 8.06146C23.2792 8.06146 27.56 12.1871 27.56 17.2745C27.56 22.3619 23.2792 26.4875 18.0003 26.4875C12.7215 26.4875 8.44068 22.3619 8.44068 17.2745C8.44068 12.1871 12.7215 8.06146 18.0003 8.06146ZM18.0003 11.7467C16.4791 11.7467 15.0202 12.3291 13.9445 13.3657C12.8688 14.4024 12.2645 15.8084 12.2645 17.2745C12.2645 18.7406 12.8688 20.1466 13.9445 21.1832C15.0202 22.2199 16.4791 22.8023 18.0003 22.8023C19.5215 22.8023 20.9805 22.2199 22.0561 21.1832C23.1318 20.1466 23.7361 18.7406 23.7361 17.2745C23.7361 15.8084 23.1318 14.4024 22.0561 13.3657C20.9805 12.3291 19.5215 11.7467 18.0003 11.7467Z" fill="#FFFCDB"/>
</svg>
