<svg width="35" height="34" viewBox="0 0 35 34" fill="none" xmlns="http://www.w3.org/2000/svg">
<path d="M31.1758 0H4.40882C2.29614 0 0.584961 1.68349 0.584961 3.76199V30.0959C0.584961 32.1744 2.29614 33.8579 4.40882 33.8579H31.1758C33.2885 33.8579 34.9997 32.1744 34.9997 30.0959V3.76199C34.9997 1.68349 33.2885 0 31.1758 0ZM12.0565 26.3339H7.23274V13.1669H12.0565V26.3339ZM9.55955 10.7536C8.08546 10.7536 7.10081 9.78681 7.10081 8.49644C7.10081 7.20608 8.08354 6.23925 9.72207 6.23925C11.1962 6.23925 12.1808 7.20608 12.1808 8.49644C12.1808 9.78681 11.1981 10.7536 9.55955 10.7536ZM29.2639 26.3339H24.595V19.1372C24.595 17.1471 23.3503 16.6882 22.8838 16.6882C22.4173 16.6882 20.861 16.9948 20.861 19.1372C20.861 19.4438 20.861 26.3339 20.861 26.3339H16.0372V13.1669H20.861V15.0047C21.4823 13.9325 22.727 13.1669 25.0615 13.1669C27.3959 13.1669 29.2639 15.0047 29.2639 19.1372V26.3339Z" fill="#FFFCDB"/>
</svg>
