<?xml version="1.0" encoding="utf-8"?>
<!-- Generator: Adobe Illustrator 27.8.1, SVG Export Plug-In . SVG Version: 6.00 Build 0)  -->
<svg version="1.1" id="donut" xmlns="http://www.w3.org/2000/svg" xmlns:xlink="http://www.w3.org/1999/xlink" x="0px" y="0px"
	 viewBox="0 0 893.5 1020" style="enable-background:new 0 0 893.5 1020;" xml:space="preserve">
<style type="text/css">
	.st0{fill:#FFA05D;}
	.st1{fill:#FF56A3;}
	.st2{fill:none;stroke:#FFFD00;stroke-width:4;stroke-linecap:round;}
	.st3{fill:none;stroke:#0086E4;stroke-width:4;stroke-linecap:round;}
	.st4{fill:#0086E4;}
</style>
<g>
	<g>
		<path class="st0" d="M187.8,644.5C84.1,644.5,0,728.5,0,832.2S84.1,1020,187.8,1020s187.8-84.1,187.8-187.8
			S291.5,644.5,187.8,644.5L187.8,644.5z M220.6,865.9c-8.4,8.4-21,13.6-32.9,13.6c-12.6,0-23.8-5.3-32.9-13.6
			c-9.1-8.4-13.1-20.9-13.6-32.9c-0.5-11.6,5.6-24.8,13.6-32.9c8.4-8.4,21-13.6,32.9-13.6c12.6,0,23.8,5.3,32.9,13.6
			c9.1,8.4,13.1,20.9,13.6,32.9C234.7,844.6,228.7,857.8,220.6,865.9z"/>
		<path class="st1" d="M368.5,822c1.5-22.4-19.5-44.2-29.1-64.4c-7.3-15.5-6.1-27.9-13.4-43.4c-3.8-8.1-15.2-16.7-23-21.4
			c-12.5-7.5-28.6-1.9-42.8-4.8c-24-4.8-38.3-32-62.1-37.4c-16.4-3.7-33.1,4-47.3,13c-15.8,10-21.7,19-39.9,22.9
			c-16.9,3.6-38.1,11.2-52.3,20.7c-11.5,7.7-25.9,21.9-31,34.7c-6.9,17.1-0.1,36.4,0.2,54.9c0.3,17.9-5.5,35.2-9.8,52.5
			c-4.2,17.3-3.4,35.3,3.2,51.9c9.8,24.6,35.7,51.7,52.7,58.5c14.5,5.8,43.5,39.8,72.6,49.4c20.5,6.7,43.3-4,64.7-7.5
			c22.2-3.7,44.2,3,64.1-7.6c21.3-11.4,31.6-33,47.8-51c12.3-13.6,31.7-25.7,31.7-44.1c0-8.3-1.8-24.4-0.1-32.6
			C358.2,849.5,367.4,838.7,368.5,822L368.5,822z M220.6,865.9c-8.4,8.4-21,13.6-32.9,13.6c-12.6,0-23.8-5.3-32.9-13.6
			c-9.1-8.4-13.1-20.9-13.6-32.9c-0.5-11.6,5.6-24.8,13.6-32.9c8.4-8.4,21-13.6,32.9-13.6c12.6,0,23.8,5.3,32.9,13.6
			c9.1,8.4,13.1,20.9,13.6,32.9C234.7,844.6,228.7,857.8,220.6,865.9z"/>
		<line class="st2" x1="239.7" y1="713.4" x2="255.2" y2="727.3"/>
		<line class="st2" x1="276.3" y1="785" x2="297.1" y2="784.8"/>
		<line class="st3" x1="112.6" y1="946.2" x2="113.9" y2="967"/>
		<line class="st2" x1="88.7" y1="847.5" x2="109.5" y2="847.4"/>
		<line class="st2" x1="215.4" y1="751.7" x2="232.2" y2="739.4"/>
		<line class="st2" x1="311.7" y1="817" x2="330.2" y2="826.7"/>
		<line class="st2" x1="52.3" y1="776.9" x2="70.7" y2="786.6"/>
		<line class="st2" x1="188.5" y1="979.4" x2="206.9" y2="989.1"/>
		<line class="st2" x1="224.2" y1="900.5" x2="244.3" y2="906.3"/>
		<line class="st2" x1="52.3" y1="889.1" x2="72.3" y2="894.9"/>
		<line class="st2" x1="124.7" y1="728.8" x2="136.6" y2="711.7"/>
		<line class="st2" x1="78.5" y1="751.6" x2="82.5" y2="731.2"/>
		<line class="st2" x1="291.3" y1="876.9" x2="276.3" y2="862.4"/>
		<line class="st2" x1="226.2" y1="966.1" x2="230.1" y2="945.7"/>
		<line class="st2" x1="290" y1="755.8" x2="294" y2="735.3"/>
		<line class="st2" x1="199.7" y1="950" x2="203.7" y2="929.5"/>
		<line class="st2" x1="185.9" y1="701.7" x2="189.9" y2="681.3"/>
		<line class="st2" x1="292" y1="917.8" x2="281.4" y2="935.8"/>
		<line class="st2" x1="171" y1="951.6" x2="157.9" y2="935.4"/>
		<line class="st2" x1="192.9" y1="759.8" x2="179.8" y2="743.6"/>
		<line class="st2" x1="79.8" y1="936.5" x2="97.6" y2="947.4"/>
		<line class="st2" x1="142.9" y1="737" x2="155" y2="754"/>
		<line class="st2" x1="270" y1="815" x2="259.5" y2="833"/>
		<line class="st2" x1="146.3" y1="899" x2="135.8" y2="917"/>
		<line class="st2" x1="83.8" y1="806" x2="73.3" y2="824"/>
		<line class="st2" x1="109.4" y1="778.9" x2="110.8" y2="799.7"/>
		<line class="st2" x1="95.2" y1="884.7" x2="110.1" y2="899.3"/>
		<line class="st3" x1="165.6" y1="966.1" x2="147" y2="956.6"/>
		<line class="st3" x1="112" y1="906.2" x2="91.9" y2="911.7"/>
		<line class="st3" x1="277.5" y1="798" x2="257.4" y2="803.5"/>
		<line class="st3" x1="187.9" y1="912.4" x2="174.7" y2="928.5"/>
		<line class="st3" x1="62.5" y1="863.4" x2="42.2" y2="858.7"/>
		<line class="st3" x1="330.6" y1="857" x2="310.3" y2="852.3"/>
		<line class="st3" x1="147.4" y1="695.8" x2="127.1" y2="691.1"/>
		<line class="st3" x1="137.6" y1="774.3" x2="116.7" y2="773.8"/>
		<line class="st3" x1="302.1" y1="748.5" x2="281.3" y2="748"/>
		<line class="st3" x1="272.9" y1="922" x2="265.7" y2="941.5"/>
		<line class="st3" x1="311.7" y1="888.2" x2="313.1" y2="909"/>
		<line class="st3" x1="82.3" y1="822.7" x2="100.5" y2="832.9"/>
		<line class="st3" x1="114.4" y1="718.2" x2="115.8" y2="739"/>
		<line class="st3" x1="246.8" y1="960.9" x2="248.1" y2="981.7"/>
		<line class="st3" x1="46.5" y1="821" x2="52.1" y2="801"/>
		<line class="st3" x1="171.4" y1="718.3" x2="188.2" y2="730.6"/>
		<line class="st3" x1="214.1" y1="911.9" x2="230.9" y2="924.2"/>
		<line class="st3" x1="252.5" y1="709.2" x2="232.6" y2="703.1"/>
		<line class="st3" x1="110.4" y1="875.5" x2="116" y2="855.5"/>
		<line class="st3" x1="204.1" y1="752.9" x2="209.8" y2="732.8"/>
		<line class="st3" x1="292.8" y1="836.9" x2="298.4" y2="816.8"/>
		<line class="st3" x1="269" y1="875.4" x2="262.3" y2="855.6"/>
		<line class="st3" x1="261.8" y1="763.7" x2="243.7" y2="753.3"/>
	</g>
	<path class="st4" d="M788.3,515.5c-70-17.2-134.5,18.1-162.1,74.6c0,0,0,0.1,0,0.1L526.3,761c-1.8,3.1,0.8,7,4.4,6.4
		c9.4-1.6,19.7-0.9,30.2,3c18.9,7,34.1,29.6,34.1,49.7v198c0,1,0.8,1.8,1.8,1.8h295c1,0,1.8-0.8,1.8-1.8V650.9
		C893.5,587,850.3,530.7,788.3,515.5z"/>
	<path class="st1" d="M441.7,758c2.8,4.8,7.3,4.8,10.1,0L888.5,8.6c2.8-4.8,0.5-8.6-5-8.6H495.2c-5.5,0-10,4.5-10,10v456.2
		c0,5.5-0.6,14.5-1.4,19.9c0,0-4.1,28.4-37,28.4s-37.6-28.4-37.6-28.4c-0.9-5.4-1.6-14.4-1.6-19.9V10c0-5.5-4.5-10-10-10H10
		c-5.5,0-7.7,3.9-5,8.6L441.7,758L441.7,758z"/>
</g>
</svg>
