<?xml version="1.0" encoding="UTF-8"?>
<svg id="donut" xmlns="http://www.w3.org/2000/svg" viewBox="0 0 1500 1500">
  <defs>
    <style>
      .cls-1 {
        stroke: #0086e4;
      }

      .cls-1, .cls-2 {
        fill: none;
        stroke-linecap: round;
        stroke-width: 4px;
      }

      .cls-2 {
        stroke: #fffd00;
      }

      .cls-3 {
        fill: #ffa05d;
      }

      .cls-3, .cls-4, .cls-5 {
        stroke-width: 0px;
      }

      .cls-4 {
        fill: #ff56a3;
      }

      .cls-5 {
        fill: #0086e4;
      }
    </style>
  </defs>
  <g>
    <path class="cls-3" d="m486.85,866.78c-103.7,0-187.77,84.07-187.77,187.77s84.07,187.77,187.77,187.77,187.77-84.07,187.77-187.77-84.07-187.77-187.77-187.77Zm32.81,221.44c-8.44,8.44-20.99,13.64-32.92,13.64-12.62,0-23.81-5.27-32.92-13.64-9.14-8.39-13.1-20.88-13.64-32.92-.52-11.6,5.56-24.85,13.64-32.92,8.44-8.44,20.99-13.64,32.92-13.64,12.62,0,23.81,5.27,32.92,13.64,9.14,8.39,13.1,20.88,13.64,32.92.52,11.6-5.56,24.85-13.64,32.92Z"/>
    <path class="cls-4" d="m667.56,1044.31c1.52-22.36-19.48-44.18-29.07-64.44-7.34-15.5-6.09-27.94-13.43-43.44-3.85-8.13-15.25-16.72-22.95-21.36-12.45-7.5-28.57-1.91-42.82-4.75-23.97-4.77-38.26-32.05-62.11-37.39-16.37-3.67-33.07,4.02-47.27,12.96-15.82,9.97-21.67,19.01-39.89,22.94-16.89,3.64-38.09,11.19-52.31,20.71-11.47,7.68-25.86,21.91-31.02,34.71-6.9,17.13-.1,36.39.21,54.86.3,17.86-5.54,35.15-9.78,52.5-4.23,17.35-3.44,35.32,3.17,51.91,9.8,24.6,35.67,51.68,52.67,58.48,14.53,5.81,43.53,39.85,72.65,49.4,20.54,6.74,43.33-4.01,64.66-7.54,22.25-3.69,44.23,3.02,64.14-7.58,21.33-11.36,31.57-33.04,47.75-50.99,12.29-13.64,31.7-25.73,31.7-44.1,0-8.33-1.78-24.39-.09-32.55,3.48-16.83,12.67-27.62,13.8-44.32Zm-147.9,43.91c-8.44,8.44-20.99,13.64-32.92,13.64-12.62,0-23.81-5.27-32.92-13.64-9.14-8.39-13.1-20.88-13.64-32.92-.52-11.6,5.56-24.85,13.64-32.92,8.44-8.44,20.99-13.64,32.92-13.64,12.62,0,23.81,5.27,32.92,13.64,9.14,8.39,13.1,20.88,13.64,32.92.52,11.6-5.56,24.85-13.64,32.92Z"/>
    <line class="cls-2" x1="538.77" y1="935.7" x2="554.3" y2="949.59"/>
    <line class="cls-2" x1="575.37" y1="1007.26" x2="596.21" y2="1007.06"/>
    <line class="cls-1" x1="411.64" y1="1168.52" x2="413" y2="1189.32"/>
    <line class="cls-2" x1="387.79" y1="1069.86" x2="408.63" y2="1069.67"/>
    <line class="cls-2" x1="514.5" y1="973.97" x2="531.33" y2="961.69"/>
    <line class="cls-2" x1="610.81" y1="1039.27" x2="629.24" y2="1048.99"/>
    <line class="cls-2" x1="351.39" y1="999.22" x2="369.83" y2="1008.93"/>
    <line class="cls-2" x1="487.6" y1="1201.69" x2="506.03" y2="1211.4"/>
    <line class="cls-2" x1="523.32" y1="1122.8" x2="543.34" y2="1128.59"/>
    <line class="cls-2" x1="351.39" y1="1111.44" x2="371.41" y2="1117.22"/>
    <line class="cls-2" x1="423.75" y1="951.08" x2="435.7" y2="934.01"/>
    <line class="cls-2" x1="377.62" y1="973.91" x2="381.58" y2="953.46"/>
    <line class="cls-2" x1="590.35" y1="1099.19" x2="575.37" y2="1084.71"/>
    <line class="cls-2" x1="525.26" y1="1188.44" x2="529.22" y2="1167.98"/>
    <line class="cls-2" x1="589.07" y1="978.06" x2="593.03" y2="957.6"/>
    <line class="cls-2" x1="498.8" y1="1172.3" x2="502.76" y2="1151.84"/>
    <line class="cls-2" x1="485.02" y1="924.04" x2="488.98" y2="903.58"/>
    <line class="cls-2" x1="591.05" y1="1140.13" x2="580.52" y2="1158.11"/>
    <line class="cls-2" x1="470.11" y1="1173.89" x2="457.02" y2="1157.68"/>
    <line class="cls-2" x1="491.97" y1="982.08" x2="478.88" y2="965.87"/>
    <line class="cls-2" x1="378.93" y1="1158.79" x2="396.66" y2="1169.74"/>
    <line class="cls-2" x1="441.99" y1="959.35" x2="454.08" y2="976.32"/>
    <line class="cls-2" x1="569.06" y1="1037.31" x2="558.54" y2="1055.3"/>
    <line class="cls-2" x1="445.41" y1="1121.36" x2="434.88" y2="1139.34"/>
    <line class="cls-2" x1="382.88" y1="1028.32" x2="372.35" y2="1046.3"/>
    <line class="cls-2" x1="408.44" y1="1001.22" x2="409.89" y2="1022"/>
    <line class="cls-2" x1="394.26" y1="1107.05" x2="409.16" y2="1121.61"/>
    <line class="cls-1" x1="464.64" y1="1188.41" x2="446.09" y2="1178.92"/>
    <line class="cls-1" x1="411.06" y1="1128.5" x2="390.95" y2="1133.99"/>
    <line class="cls-1" x1="576.57" y1="1020.28" x2="556.46" y2="1025.77"/>
    <line class="cls-1" x1="486.98" y1="1134.67" x2="473.82" y2="1150.83"/>
    <line class="cls-1" x1="361.54" y1="1085.69" x2="341.24" y2="1080.98"/>
    <line class="cls-1" x1="629.72" y1="1079.36" x2="609.42" y2="1074.64"/>
    <line class="cls-1" x1="446.53" y1="918.15" x2="426.23" y2="913.44"/>
    <line class="cls-1" x1="436.65" y1="996.58" x2="415.82" y2="996.07"/>
    <line class="cls-1" x1="601.2" y1="970.82" x2="580.37" y2="970.32"/>
    <line class="cls-1" x1="571.98" y1="1144.3" x2="564.75" y2="1163.85"/>
    <line class="cls-1" x1="610.79" y1="1110.49" x2="612.15" y2="1131.29"/>
    <line class="cls-1" x1="381.37" y1="1044.99" x2="399.54" y2="1055.19"/>
    <line class="cls-1" x1="413.48" y1="940.53" x2="414.84" y2="961.33"/>
    <line class="cls-1" x1="545.85" y1="1183.19" x2="547.22" y2="1203.98"/>
    <line class="cls-1" x1="345.54" y1="1043.35" x2="351.15" y2="1023.28"/>
    <line class="cls-1" x1="470.51" y1="940.59" x2="487.3" y2="952.94"/>
    <line class="cls-1" x1="513.18" y1="1134.16" x2="529.96" y2="1146.51"/>
    <line class="cls-1" x1="551.63" y1="931.49" x2="531.7" y2="925.41"/>
    <line class="cls-1" x1="409.52" y1="1097.83" x2="415.13" y2="1077.76"/>
    <line class="cls-1" x1="503.23" y1="975.2" x2="508.84" y2="955.13"/>
    <line class="cls-1" x1="591.87" y1="1059.21" x2="597.48" y2="1039.14"/>
    <line class="cls-1" x1="568.09" y1="1097.66" x2="561.41" y2="1077.93"/>
    <line class="cls-1" x1="560.86" y1="985.96" x2="542.74" y2="975.66"/>
  </g>
  <path class="cls-5" d="m1087.36,737.76c-70.04-17.16-134.46,18.1-162.12,74.63-.02.03-.03.07-.05.1l-99.84,170.87c-1.83,3.13.81,7.01,4.38,6.39,9.44-1.64,19.72-.86,30.17,3.02,18.86,7,34.13,29.6,34.13,49.72v198.03c0,.99.8,1.79,1.79,1.79h294.96c.99,0,1.79-.8,1.79-1.79v-367.31c0-63.89-43.16-120.25-105.21-135.45Z"/>
  <path class="cls-4" d="m740.8,980.31c2.77,4.75,7.3,4.75,10.07,0l436.66-749.36c2.77-4.75.53-8.64-4.97-8.64h-388.32c-5.5,0-10,4.5-10,10v456.24c0,5.5-.64,14.45-1.43,19.9,0,0-4.11,28.38-36.98,28.38s-37.59-28.42-37.59-28.42c-.9-5.43-1.64-14.36-1.64-19.86V232.31c0-5.5-4.5-10-10-10h-387.5c-5.5,0-7.73,3.89-4.97,8.64l436.66,749.36Z"/>
</svg>