<?xml version="1.0" encoding="utf-8"?>
<!-- Generator: Adobe Illustrator 27.8.1, SVG Export Plug-In . SVG Version: 6.00 Build 0)  -->
<svg version="1.0" id="oj" xmlns="http://www.w3.org/2000/svg" xmlns:xlink="http://www.w3.org/1999/xlink" x="0px" y="0px"
	 viewBox="0 0 893.5 1020" style="enable-background:new 0 0 893.5 1020;" xml:space="preserve">
<style type="text/css">
	.st0{fill:#606060;}
	.st1{fill:#C7C8CA;}
</style>
<path class="st0" d="M788.3,515.5c-70-17.2-134.5,18.1-162.1,74.6v0.1L526.2,761c-1.8,3.1,0.8,7,4.4,6.4c9.4-1.6,19.7-0.9,30.2,3
	c18.9,7,34.1,29.6,34.1,49.7v198c0,1,0.8,1.8,1.8,1.8h295c1,0,1.8-0.8,1.8-1.8V650.9C893.5,587,850.3,530.7,788.3,515.5L788.3,515.5
	z"/>
<path class="st1" d="M441.7,758c2.8,4.8,7.3,4.8,10.1,0L888.4,8.6c2.8-4.8,0.5-8.6-5-8.6H495.1c-5.5,0-10,4.5-10,10v456.2
	c0,5.5-0.6,14.5-1.4,19.9c0,0-4.1,28.4-37,28.4s-37.6-28.4-37.6-28.4c-0.9-5.4-1.6-14.4-1.6-19.9V10c0-5.5-4.5-10-10-10H10
	C4.5,0,2.3,3.9,5,8.6L441.7,758L441.7,758z"/>
<g>
	<path class="st0" d="M352.6,817.8L352.6,817.8L352.6,817.8c-1.9-19.6-7.2-38.1-15.3-55.1l19.8-13l-13.3-22.9l-21.4,10.8
		c0,0,0,0,0,0c-11.1-15.4-24.8-28.9-40.5-39.6v0l10.8-21.3l-23-13.2l-13.2,20.1v0c0,0,0,0,0,0c-16.7-7.6-34.9-12.5-54.1-14.1
		l-1.4-24.3h-26.4l-1.4,24.4h0l0,0.1v0.1c-19.2,1.7-37.5,6.8-54.1,14.6l0-0.1c0,0,0,0,0,0l-12.9-19.5L83.2,678l10.5,20.8
		c-15.3,10.8-28.8,24.1-39.6,39.4c0,0,0,0,0,0L31.8,727l-13.3,22.9l20.8,13.6c0,0,0,0,0,0c-7.9,16.7-13.1,35-14.9,54.2v0v0L0,819.1
		v26.5l24.1,1.4c0,0,0,0,0,0c0.8,9.7,2.3,19.1,4.7,28.3c2.4,9.1,5.5,18,9.4,26.5l-19.7,12.9l13.3,22.9l20.7-10.4
		c10.9,15.8,24.4,29.5,39.9,40.7c0,0,0,0,0,0l0,0l-10.6,20.9l23,13.2l12.6-19.3l0,0c17.2,8.2,36,13.5,55.8,15.3h0c0,0,0,0,0,0
		l1.3,22.8H201l1.3-22.7h0c19.7-1.6,38.5-6.8,55.7-14.7l0,0l13,19.8l22.9-13.2v0l-10.7-21.2l0,0c0,0,0,0,0,0
		c15.9-11.2,29.7-25.1,40.8-41c0,0,0,0,0,0l19.8,10l13.3-22.9l-18.7-12.3c0,0,0,0,0,0c7.9-17.2,12.9-35.8,14.5-55.6h0l22.7-1.3
		v-26.5h0L352.6,817.8z M239.2,723.5L239.2,723.5c0.1,0,0.1,0,0.2,0.1c0.2,0.1,0.4,0.2,0.6,0.3c1,0.5,2.1,1,3.1,1.5
		c0.6,0.3,1.2,0.6,1.8,0.9c0.6,0.3,1.2,0.6,1.8,1c1.6,0.9,3.2,1.8,4.7,2.7c2,1.2,3.9,2.4,5.8,3.8c0.4,0.2,0.7,0.5,1,0.7h0.1
		c0.2,0.1,0.3,0.2,0.5,0.3c0.2,0.1,0.3,0.2,0.5,0.4l0,0c9,6.5,17.1,14.2,24,22.8L240,783.5c-9.4-9.7-21.6-16.7-35.2-19.8v-50h0.1
		C217,715.2,228.5,718.7,239.2,723.5z M188.5,866.8c-18.2,0-32.9-14.7-32.9-32.9s14.8-32.9,32.9-32.9c18.1,0,32.9,14.7,32.9,32.9
		S206.7,866.8,188.5,866.8z M170.8,713.7V764c-6.3,1.6-12.3,4-17.9,7.2c-5.5,3.2-10.6,7-15.1,11.5l-43.2-25.7c0,0,0.1-0.1,0.1-0.1
		c5.7-7,12.3-13.4,19.5-19l0.6-0.4c1.6-1.2,3.1-2.3,4.8-3.4c0.1-0.1,0.3-0.2,0.4-0.3c0.7-0.5,1.4-0.9,2-1.4c0.7-0.5,1.4-0.9,2.1-1.3
		c0.7-0.4,1.4-0.9,2.1-1.3c0.7-0.4,1.4-0.8,2.1-1.3c1-0.5,1.9-1.1,2.9-1.6c0.6-0.3,1.1-0.6,1.7-0.9c0.6-0.3,1.3-0.6,1.9-1
		c2.3-1.2,4.7-2.3,7.1-3.3l-0.3,0.2c0.1,0,0.2-0.1,0.4-0.2l1.1-0.6v0l-1.1,0.6C151.1,717.9,160.7,715.2,170.8,713.7z M76,879.2
		c0,0,0-0.1,0-0.1c-4.9-12-7.8-25-8.6-38.5c0-0.8-0.1-1.6-0.1-2.5v-8.9c0-0.8,0.1-1.6,0.1-2.5c0.8-14.4,4.2-28.1,9.5-40.7l43,25.6
		c-2.3,7-3.5,14.4-3.5,22.1c0,7,1,13.8,2.9,20.2L76,879.2z M141.7,945.6L141.7,945.6L141.7,945.6
		C141.7,945.6,141.7,945.6,141.7,945.6c-0.8-0.3-1.6-0.7-2.3-1c-0.3-0.2-0.7-0.3-1-0.5c-0.4-0.2-0.7-0.3-1.1-0.5
		c-0.9-0.4-1.7-0.8-2.5-1.2c-0.2-0.1-0.4-0.2-0.5-0.3c-0.8-0.4-1.6-0.8-2.4-1.3c-0.4-0.2-0.8-0.4-1.2-0.7c-0.7-0.4-1.4-0.8-2.1-1.2
		c-0.5-0.3-1-0.6-1.5-0.9c-0.7-0.4-1.3-0.8-1.9-1.2c-0.5-0.3-0.9-0.6-1.4-0.9c-0.1,0-0.1-0.1-0.2-0.1c-0.7-0.5-1.5-0.9-2.2-1.4
		c0,0-0.1,0-0.1-0.1c-0.1-0.1-0.3-0.2-0.4-0.3c-0.9-0.6-1.7-1.2-2.6-1.8c-0.2-0.2-0.5-0.3-0.7-0.5c-0.5-0.4-1.1-0.8-1.6-1.2
		c-0.4-0.3-0.8-0.6-1.2-0.9c-0.4-0.3-0.9-0.7-1.3-1c-3.8-2.9-7.3-6.1-10.7-9.5c-3.3-3.3-6.5-6.9-9.4-10.6l43.1-25.2
		c9.2,9.7,21.1,16.8,34.5,20.1v50.1c-5.1-0.8-10.1-1.8-14.9-3.2C151,949.2,146.3,947.6,141.7,945.6z M283.6,909.2
		c-6.7,8.4-14.4,15.8-23,22.2h-0.1c-0.1,0.1-0.3,0.2-0.4,0.3l0,0c0,0,0,0,0,0l-0.1,0.1l0,0c-2.9,2.1-5.9,4.1-8.9,5.9
		c-0.6,0.3-1.1,0.7-1.7,1c0,0-0.1,0-0.1,0.1c-0.7,0.4-1.5,0.8-2.2,1.2c-0.3,0.2-0.6,0.3-0.8,0.5c-0.7,0.4-1.3,0.7-2,1
		c-0.4,0.2-0.8,0.4-1.3,0.6c-1.6,0.8-3.3,1.6-5,2.3l-0.1,0l-0.1,0.1c0,0,0,0,0,0l0,0c-0.2,0.1-0.5,0.2-0.7,0.3h-0.1
		c-10,4.3-20.6,7.4-31.9,8.9v-50c13.9-3.2,26.2-10.4,35.7-20.4L283.6,909.2L283.6,909.2C283.6,909.2,283.6,909.2,283.6,909.2z
		 M308.9,849.4c-1.3,10.1-3.8,19.8-7.4,28.9l0,0l0,0c-0.2,0.5-0.4,0.9-0.6,1.4c0,0,0,0,0,0h0l-1-0.6L257.7,854v0
		c0.9-3.2,1.7-6.5,2.2-9.9c0.5-3.4,0.7-6.8,0.7-10.3c0-7.3-1.1-14.4-3.2-21v0l43.3-25.3c0,0,0,0,0,0c0,0,0,0,0,0
		c1.8,4.4,3.4,8.9,4.7,13.6c1.3,4.6,2.3,9.4,3,14.2c0,0,0,0,0,0l0,0c0.9,6,1.4,12.2,1.4,18.5C309.9,839.1,309.6,844.2,308.9,849.4
		C308.9,849.3,308.9,849.4,308.9,849.4C308.9,849.4,308.9,849.4,308.9,849.4z"/>
	<polygon class="st0" points="357.1,914.8 357.1,914.8 357.1,914.8 	"/>
</g>
</svg>
