<?xml version="1.0" encoding="UTF-8"?>
<svg id="oj" xmlns="http://www.w3.org/2000/svg" viewBox="0 0 1500 1500">
  <defs>
    <style>
      .cls-1 {
        fill: #ff6a04;
      }

      .cls-1, .cls-2, .cls-3 {
        stroke-width: 0px;
      }

      .cls-2 {
        fill: #ffebd2;
      }

      .cls-3 {
        fill: #ff5423;
      }
    </style>
  </defs>
  <g>
    <circle class="cls-3" cx="486.87" cy="1054.55" r="187.77"/>
    <circle class="cls-2" cx="486.85" cy="1054.55" r="168.6"/>
    <path class="cls-1" d="m438.62,908.01l45.16,126.98c.69,1.94,4.78,1.96,5.52.03l48.72-126.96c.36-.95-.39-1.92-1.75-2.27-10.34-2.64-52.89-11.99-95.99,0-1.29.36-1.99,1.31-1.66,2.22Z"/>
    <path class="cls-1" d="m438.62,1201.08l45.16-126.98c.69-1.94,4.78-1.96,5.52-.03l48.72,126.96c.36.95-.39,1.92-1.75,2.27-10.34,2.64-52.89,11.99-95.99,0-1.29-.36-1.99-1.31-1.66-2.22Z"/>
    <path class="cls-1" d="m342.31,1102.88l126.98-45.16c1.94-.69,1.96-4.78.03-5.52l-126.96-48.72c-.95-.36-1.92.39-2.27,1.75-2.64,10.34-11.99,52.89,0,95.99.36,1.29,1.31,1.99,2.22,1.66Z"/>
    <path class="cls-1" d="m632.03,1102.88l-126.98-45.16c-1.94-.69-1.96-4.78-.03-5.52l126.96-48.72c.95-.36,1.92.39,2.27,1.75,2.64,10.34,11.99,52.89,0,95.99-.36,1.29-1.31,1.99-2.22,1.66Z"/>
    <path class="cls-1" d="m555.29,917.53l-57.6,121.84c-.88,1.86,2,4.77,3.89,3.92l124.1-55.59c.93-.41,1.08-1.63.36-2.84-5.47-9.17-29.02-45.82-68.02-67.73-1.16-.65-2.33-.48-2.74.4Z"/>
    <path class="cls-1" d="m349.81,1123.35l121.59-58.12c1.86-.89,4.78,1.98,3.94,3.87l-55.06,124.34c-.41.93-1.63,1.09-2.84.37-9.19-5.43-45.94-28.82-68.02-67.73-.66-1.16-.49-2.33.38-2.74Z"/>
    <path class="cls-1" d="m350.51,987.15l121.84,57.6c1.86.88,4.77-2,3.92-3.89l-55.59-124.1c-.41-.93-1.63-1.08-2.84-.36-9.17,5.47-45.82,29.02-67.73,68.02-.65,1.16-.48,2.33.4,2.74Z"/>
    <path class="cls-1" d="m556.29,1192.11l-58.12-121.59c-.89-1.86,1.98-4.78,3.87-3.94l124.34,55.06c.93.41,1.09,1.63.37,2.84-5.43,9.19-28.82,45.94-67.73,68.02-1.16.66-2.33.49-2.74-.38Z"/>
  </g>
  <path class="cls-1" d="m1087.36,737.76c-70.04-17.16-134.46,18.1-162.12,74.63-.02.03-.03.07-.05.1l-99.84,170.87c-1.83,3.13.81,7.01,4.38,6.39,9.44-1.64,19.72-.86,30.17,3.02,18.86,7,34.13,29.6,34.13,49.72v198.03c0,.99.8,1.79,1.79,1.79h294.96c.99,0,1.79-.8,1.79-1.79v-367.31c0-63.89-43.16-120.25-105.21-135.45Z"/>
  <path class="cls-1" d="m740.8,980.31c2.77,4.75,7.3,4.75,10.07,0l436.66-749.36c2.77-4.75.53-8.64-4.97-8.64h-388.32c-5.5,0-10,4.5-10,10v456.24c0,5.5-.64,14.45-1.43,19.9,0,0-4.11,28.38-36.98,28.38s-37.59-28.42-37.59-28.42c-.9-5.43-1.64-14.36-1.64-19.86V232.31c0-5.5-4.5-10-10-10h-387.5c-5.5,0-7.73,3.89-4.97,8.64l436.66,749.36Z"/>
</svg>