<?xml version="1.0" encoding="UTF-8"?>
<svg id="pizza" xmlns="http://www.w3.org/2000/svg" viewBox="0 0 1500 1500">
  <defs>
    <style>
      .cls-1 {
        fill: #d22a23;
      }

      .cls-1, .cls-2, .cls-3 {
        stroke-width: 0px;
      }

      .cls-2 {
        fill: #fc0;
      }

      .cls-3 {
        fill: #ffa05d;
      }
    </style>
  </defs>
  <g>
    <circle class="cls-3" cx="491.04" cy="1055.64" r="187.77"/>
    <path class="cls-2" d="m440.79,884.43c-16.67,5.15-34.08,21.97-47.68,32.9-10.58,8.5-27.73,15.78-36.5,26.13-14.58,17.19-21.03,37.8-30.48,58.27-13.96,30.24-12.91,72.65-3.27,104.53,9.64,31.88,27.44,53.22,52.91,74.68,27.34,23.03,60.62,45.74,96.08,50.22,35.46,4.48,72.99-9.48,104.04-27.19,32.31-18.43,75.18-57.17,84.96-93.06,12.88-47.3,4.39-85.15-14.38-128.91-12.08-28.15-31.65-52.94-55.87-71.64-11.38-8.79-26.15-19.84-40.41-23.14-14.13-3.28-31.71-2.73-46.19-2.75-21.79-.03-42.36-6.46-63.2-.02Z"/>
    <circle class="cls-1" cx="413.92" cy="971.22" r="26.8"/>
    <circle class="cls-1" cx="525.93" cy="1027.81" r="26.8"/>
    <circle class="cls-1" cx="499.55" cy="1121.89" r="26.8"/>
    <circle class="cls-1" cx="584.77" cy="990.04" r="26.8"/>
    <circle class="cls-1" cx="579.53" cy="1149.52" r="26.8"/>
    <circle class="cls-1" cx="446.38" cy="1049.39" r="26.8"/>
    <circle class="cls-1" cx="360.32" cy="1046.71" r="26.8"/>
    <circle class="cls-1" cx="419.58" cy="1149.52" r="26.8"/>
    <circle class="cls-1" cx="606.33" cy="1069.34" r="26.8"/>
    <circle class="cls-1" cx="514.16" cy="933.1" r="26.8"/>
  </g>
  <path class="cls-1" d="m1091.52,738.85c-70.04-17.16-134.46,18.1-162.12,74.63-.02.03-.03.07-.05.1l-99.84,170.87c-1.83,3.13.81,7.01,4.38,6.39,9.44-1.64,19.72-.86,30.17,3.02,18.86,7,34.13,29.6,34.13,49.72v198.03c0,.99.8,1.79,1.79,1.79h294.96c.99,0,1.79-.8,1.79-1.79v-367.31c0-63.89-43.16-120.25-105.21-135.45Z"/>
  <path class="cls-2" d="m744.97,981.4c2.77,4.75,7.3,4.75,10.07,0l436.66-749.36c2.77-4.75.53-8.64-4.97-8.64h-388.32c-5.5,0-10,4.5-10,10v456.24c0,5.5-.64,14.45-1.43,19.9,0,0-4.11,28.38-36.98,28.38s-37.59-28.42-37.59-28.42c-.9-5.43-1.64-14.36-1.64-19.86V233.4c0-5.5-4.5-10-10-10h-387.5c-5.5,0-7.73,3.89-4.97,8.64l436.66,749.36Z"/>
</svg>