<?xml version="1.0" encoding="UTF-8"?>
<svg id="oj" xmlns="http://www.w3.org/2000/svg" viewBox="0 0 893.5 1020">
  <defs>
    <style>
      .cls-1 {
        fill: #606060;
      }

      .cls-1, .cls-2 {
        stroke-width: 0px;
      }

      .cls-2 {
        fill: #c7c8ca;
      }
    </style>
  </defs>
  <path class="cls-1" d="m788.3,515.5c-70-17.2-134.5,18.1-162.1,74.6v.1l-100,170.8c-1.8,3.1.8,7,4.4,6.4,9.4-1.6,19.7-.9,30.2,3,18.9,7,34.1,29.6,34.1,49.7v198c0,1,.8,1.8,1.8,1.8h295c1,0,1.8-.8,1.8-1.8v-367.2c0-63.9-43.2-120.2-105.2-135.4Z"/>
  <path class="cls-2" d="m441.7,758c2.8,4.8,7.3,4.8,10.1,0L888.4,8.6c2.8-4.8.5-8.6-5-8.6h-388.3c-5.5,0-10,4.5-10,10v456.2c0,5.5-.6,14.5-1.4,19.9,0,0-4.1,28.4-37,28.4s-37.6-28.4-37.6-28.4c-.9-5.4-1.6-14.4-1.6-19.9V10c0-5.5-4.5-10-10-10H10C4.5,0,2.3,3.9,5,8.6l436.7,749.4h0Z"/>
  <g>
    <path class="cls-1" d="m257.44,811.99c-3.41-11.17-9.45-21.18-17.42-29.31-9.44-9.67-21.59-16.68-35.22-19.83-5.24-1.21-10.69-1.85-16.3-1.85-6.11,0-12.04.76-17.7,2.19h0c-12.67,3.2-24,9.76-33.01,18.66-8.11,8.01-14.32,17.93-17.91,29.02-2.26,6.98-3.48,14.41-3.48,22.13,0,7.01,1,13.78,2.88,20.18,3.26,11.22,9.19,21.3,17.05,29.52,9.22,9.65,21.11,16.75,34.47,20.12,5.66,1.42,11.59,2.18,17.7,2.18,5.64,0,11.13-.65,16.4-1.88,13.86-3.22,26.19-10.45,35.71-20.39,7.87-8.22,13.81-18.3,17.09-29.5h0c1.89-6.43,2.9-13.21,2.9-20.23-.02-7.31-1.12-14.36-3.16-21.01Zm-68.94,54.01c-18.2,0-32.9-14.7-32.9-32.9s14.8-32.9,32.9-32.9,32.9,14.7,32.9,32.9-14.7,32.9-32.9,32.9Z"/>
    <path class="cls-1" d="m114.17,736.99c-7.16,5.59-13.74,12.02-19.47,19.01-.03.04-.06.07-.09.11l-21.07-12.56-1.71,2.87-17.76-8.97s.02-.03.03-.05c10.8-15.3,24.3-28.6,39.6-39.4l.1.2,19.7,39,.04-.02.06.12.57-.31Z"/>
    <path class="cls-1" d="m114.8,736.5c-.21.16-.42.33-.63.49l-.57.31-.06-.12,1.26-.68Z"/>
    <path class="cls-1" d="m353.4,833c0,4.3-.2,8.7-.5,13,0,.03,0,.05-.01.08-1.6,19.77-6.6,38.44-14.49,55.62,0,.01-.01.01-.01.02-4.1,8.89-8.89,17.29-14.39,25.18-11.1,15.89-24.89,29.79-40.78,40.98,0,.01,0,.02-.02.02-7.9,5.6-16.3,10.5-25.2,14.6h-.01c-17.2,7.9-35.99,13.1-55.69,14.7h-.02c-4.49.4-9.09.6-13.78.6-5.1,0-10.19-.2-15.19-.7h-.01c-19.79-1.8-38.59-7.1-55.78-15.29-.01,0-.01-.01-.02-.01-8.8-4.2-17.1-9.2-25-14.8-.01-.01-.02-.01-.03-.02-15.57-11.18-29.04-24.96-39.93-40.72,0-.02-.03-.04-.04-.06-5.5-7.9-10.3-16.39-14.3-25.29h0c-7.69-16.99-12.59-35.37-14.09-54.75-.01-.02-.01-.04-.01-.06-.3-4.3-.5-8.7-.5-13.1,0-5.39.3-10.79.8-16.08v-.02c1.8-19.19,6.99-37.48,14.88-54.17,0-.01.02-.02.02-.03,4.19-8.88,9.08-17.36,14.77-25.25l17.76,8.97,1.71-2.87,21.07,12.56c-7.16,8.77-13.13,18.43-17.61,28.99-.02.06-.05.11-.07.17-5.36,12.65-8.73,26.29-9.53,40.73-.04.82-.07,1.64-.1,2.46-.06,1.48-.1,2.96-.1,4.44s.04,2.96.1,4.44c.03.82.06,1.64.1,2.46.8,13.5,3.7,26.5,8.6,38.5,0,.04.02.09.04.13.03.06.06.11.06.17l.1.1c.21.5.4.99.61,1.49v.03c3.92,9.29,8.98,17.95,15.02,25.89h.01s.04.06.06.09c.4.5.8,1,1.2,1.5.04.06.09.11.13.17,2.91,3.74,6.04,7.28,9.37,10.62,3.38,3.39,6.95,6.56,10.7,9.51.43.34.86.68,1.29,1.02,8.26,6.43,17.32,11.69,27.11,15.78.01,0,.02.01.03.01,4.59,1.95,9.3,3.59,14.15,4.94,4.84,1.35,9.82,2.4,14.92,3.15h.02c5.79.9,11.69,1.3,17.68,1.3,5.49,0,10.98-.4,16.27-1.1h.03s.07,0,.1,0c11.26-1.51,21.93-4.6,31.9-8.89h.1c.3-.13.6-.26.9-.4l.1-.05c7.8-3.41,15.14-7.7,21.98-12.7l.05-.03c.2-.14.38-.28.57-.42h.1c8.67-6.38,16.35-13.85,23.04-22.22.02-.03.04-.05.06-.08.29-.39.68-.87.97-1.26.01,0,.02-.03.03-.04,6.59-8.49,12.08-17.97,16.18-28.05.01-.02.01-.03.02-.05.2-.49.39-.89.59-1.38,0-.01.01-.01.01-.02,3.59-9.18,6.09-18.86,7.39-28.93,0-.02.01-.05.01-.07.7-5.1,1-10.2,1-15.5,0-6.3-.5-12.49-1.4-18.49h0c-1.4-9.71-4.1-19.01-7.7-27.81-.01-.01-.01-.02-.01-.03-.48-.95-.87-1.82-1.25-2.77,0-.03-.03-.07-.04-.1-1.7-3.95-3.62-7.75-5.75-11.42-2.13-3.68-4.45-7.23-6.95-10.68-.24-.36-.5-.73-.76-1.09l-.02-.03c-.81-1.12-1.7-2.23-2.52-3.28h-.01c-6.93-8.67-15.07-16.41-24.06-22.86l-.04-.03c-.33-.23-.65-.48-.99-.71h-.1c-5.9-4.2-12.2-7.8-18.9-10.9-.05-.03-.11-.05-.16-.07h-.03c-10.74-4.87-22.18-8.34-34.31-9.93h-.1s-16.3-1.1-16.3-1.1l-17.7,1.1v-1.3l1.3-23.2,1.09-19.3v-.1s.01-.1.01-.1h.01l29.18-.1h.01c19.2,1.6,37.4,6.5,54.1,14.1.01,0,.01.01.02.01,8.89,4.1,17.39,8.89,25.38,14.39,0,.01.02.01.03.02,15.69,10.7,29.38,24.19,40.47,39.58,0,.02.02.03.04.05,5.68,7.89,10.67,16.27,14.86,25.05.01,0,.01.03.02.04,8.09,16.99,13.38,35.48,15.28,55.06.5,5.3.8,10.6.8,16Z"/>
    <path class="cls-1" d="m173.2,669l-1.1,19.4-1.3,23.2v1.3c-10.1,1.5-19.7,4.2-28.8,8l1.1-.6-24.1-36.7s.03-.02.05-.02c16.68-7.79,34.96-12.88,54.14-14.58h.01Z"/>
    <g>
      <polygon class="cls-1" points="172.1 688.4 170.8 711.7 170.8 713 170.8 763.2 170.8 776.8 204.8 776.8 204.8 762.8 204.8 712.8 204.8 711.7 203.5 688.4 172.1 688.4"/>
      <rect class="cls-1" x="170.8" y="889.2" width="34.1" height="88.4"/>
    </g>
    <g>
      <polygon class="cls-1" points="322.07 891.58 306.34 917.98 304.61 920.88 283.64 908.38 240.61 882.73 228.68 875.62 246.13 846.33 257.7 853.22 257.7 853.23 299.9 878.37 300.88 878.95 322.07 891.58"/>
      <polygon class="cls-1" points="149.47 788.81 132.02 818.1 119.88 810.87 76.93 785.27 75.78 784.59 56.08 772.85 71.83 746.42 73.54 743.55 94.61 756.11 137.79 781.85 149.47 788.81"/>
    </g>
    <g>
      <rect class="cls-1" x="231.64" y="764.45" width="88.4" height="34.1" transform="translate(-356.47 245.77) rotate(-30.29)"/>
      <rect class="cls-1" x="58.16" y="865.75" width="88.4" height="34.1" transform="translate(-431.24 172.1) rotate(-30.29)"/>
    </g>
    <g>
      <polygon class="cls-1" points="170.8 711.7 172.1 688.4 173.2 668.9 174.6 644.4 201 644.4 202.4 668.8 203.5 688.4 204.8 711.7 188.5 711.7 170.8 711.7"/>
      <polygon class="cls-1" points="204.8 952.6 170.8 952.6 174.6 1019.9 201 1019.9 204.8 952.6"/>
    </g>
    <g>
      <path class="cls-1" d="m114.8,736.6l-.63.39c.21-.16.42-.33.63-.49l-1.3.7-19.8-39.2c7.89-5.59,16.41-10.31,25.3-14.4l24.1,36.7-1.1.6c-.13.05-.25.11-.38.16l.28-.16c-2.41,1.02-4.78,2.11-7.11,3.28-.63.31-1.26.63-1.89.96-.56.29-1.12.59-1.68.88-.97.52-1.93,1.05-2.89,1.6-.71.41-1.42.83-2.13,1.26-.7.41-1.4.84-2.1,1.29-.7.42-1.39.86-2.07,1.33-.69.45-1.37.91-2.05,1.37-.14.1-.29.19-.43.29-1.61,1.11-3.19,2.26-4.75,3.44"/>
      <path class="cls-1" d="m114.8,736.5c-.21.16-.42.33-.63.49l-.63.39-.13-.12,1.39-.75Z"/>
      <path class="cls-1" d="m143.1,720.3l-24.1-36.7c-8.89,4.09-17.27,8.98-25.16,14.57l-.04-.07c7.89-5.59,16.27-10.48,25.15-14.58.02,0,.03-.01.05-.02l.05.08,24.05,36.72Z"/>
      <path class="cls-1" d="m119,683.6c-8.89,4.09-17.27,8.98-25.16,14.57-.01.01-.03.02-.04.03l-.1-.2-10.5-20.8,22.9-13.2,12.85,19.52.05.08Z"/>
      <path class="cls-1" d="m293.9,989.1l-22.9,13.2-13.01-19.8-23.99-36.5,3.8-2.2.1-.05c7.8-3.41,15.14-7.7,21.98-12.7l.05-.03,3.67-2.12,19.62,38.98,10.68,21.22Z"/>
    </g>
    <g>
      <path class="cls-1" d="m292.7,675.9l-10.77,21.32-19.63,38.88-2.87-1.66-.04-.03c-.33-.23-.65-.48-.99-.71h-.1c-5.9-4.2-12.2-7.8-18.9-10.9-.05-.03-.11-.05-.16-.07h-.03s-6.41-3.73-6.41-3.73l23.72-36.19,13.18-20.11,23,13.2Z"/>
      <path class="cls-1" d="m141.73,944.81l-24.21,37-12.62,19.29-23-13.2,10.57-20.92,19.83-39.28,2.29,1.32c8.26,6.43,17.32,11.69,27.11,15.78.01,0,.02.01.03.01Z"/>
    </g>
    <g>
      <polygon class="cls-1" points="67.3 814.5 67.3 848.6 0 844.8 0 818.3 67.3 814.5"/>
      <path class="cls-1" d="m375.6,818.3v26.5l-22.71,1.28-44,2.49s.01-.05.01-.07c.7-5.1,1-10.2,1-15.5,0-6.3-.5-12.49-1.4-18.49l44.1,2.49,23,1.3Z"/>
    </g>
    <g>
      <polygon class="cls-1" points="300.7 785.9 283.6 756.4 343.8 726.1 357.1 749 300.7 785.9"/>
      <polygon class="cls-1" points="92 906.4 74.9 876.9 18.5 913.8 31.8 936.7 92 906.4"/>
    </g>
    <g>
      <polygon class="cls-1" points="92 756.6 75.78 784.59 74.9 786.1 39.28 762.73 18.5 749.1 31.8 726.2 54.07 737.45 71.83 746.42 92 756.6"/>
      <path class="cls-1" d="m357.1,914l-13.3,22.9-19.8-10-17.66-8.92-21.67-10.94-1.07-.54,16.3-28.13.98.58s.01-.03.02-.05c.2-.49.39-.89.59-1.38l36.9,24.2,18.71,12.28Z"/>
    </g>
  </g>
</svg>