<?xml version="1.0" encoding="utf-8"?>
<!-- Generator: Adobe Illustrator 27.8.1, SVG Export Plug-In . SVG Version: 6.00 Build 0)  -->
<svg version="1.1" id="pizza" xmlns="http://www.w3.org/2000/svg" xmlns:xlink="http://www.w3.org/1999/xlink" x="0px" y="0px"
	 viewBox="0 0 893.5 1020" style="enable-background:new 0 0 893.5 1020;" xml:space="preserve">
<style type="text/css">
	.st0{fill:#FFA05D;}
	.st1{fill:#FFCC00;}
	.st2{fill:#D22A23;}
</style>
<g>
	<g>
		<circle class="st0" cx="187.8" cy="832.2" r="187.8"/>
		<path class="st1" d="M137.5,661c-16.7,5.2-34.1,22-47.7,32.9c-10.6,8.5-27.7,15.8-36.5,26.1c-14.6,17.2-21,37.8-30.5,58.3
			c-14,30.2-12.9,72.6-3.3,104.5s27.4,53.2,52.9,74.7c27.3,23,60.6,45.7,96.1,50.2s73-9.5,104-27.2c32.3-18.4,75.2-57.2,85-93.1
			c12.9-47.3,4.4-85.2-14.4-128.9c-12.1-28.2-31.7-52.9-55.9-71.6c-11.4-8.8-26.2-19.8-40.4-23.1c-14.1-3.3-31.7-2.7-46.2-2.8
			C178.9,661,158.4,654.6,137.5,661L137.5,661z"/>
		<circle class="st2" cx="110.6" cy="747.8" r="26.8"/>
		<circle class="st2" cx="222.7" cy="804.4" r="26.8"/>
		<circle class="st2" cx="196.3" cy="898.5" r="26.8"/>
		<circle class="st2" cx="281.5" cy="766.6" r="26.8"/>
		<circle class="st2" cx="276.3" cy="926.1" r="26.8"/>
		<circle class="st2" cx="143.1" cy="826" r="26.8"/>
		<circle class="st2" cx="57" cy="823.3" r="26.8"/>
		<circle class="st2" cx="116.3" cy="926.1" r="26.8"/>
		<circle class="st2" cx="303.1" cy="845.9" r="26.8"/>
		<circle class="st2" cx="210.9" cy="709.7" r="26.8"/>
	</g>
	<path class="st2" d="M788.2,515.4c-70-17.2-134.5,18.1-162.1,74.6c0,0,0,0.1,0,0.1L526.2,761c-1.8,3.1,0.8,7,4.4,6.4
		c9.4-1.6,19.7-0.9,30.2,3c18.9,7,34.1,29.6,34.1,49.7v198c0,1,0.8,1.8,1.8,1.8h295c1,0,1.8-0.8,1.8-1.8V650.9
		C893.5,587,850.3,530.7,788.2,515.4z"/>
	<path class="st1" d="M441.7,758c2.8,4.8,7.3,4.8,10.1,0L888.4,8.6c2.8-4.8,0.5-8.6-5-8.6H495.1c-5.5,0-10,4.5-10,10v456.2
		c0,5.5-0.6,14.5-1.4,19.9c0,0-4.1,28.4-37,28.4s-37.6-28.4-37.6-28.4c-0.9-5.4-1.6-14.4-1.6-19.9V10c0-5.5-4.5-10-10-10H10
		C4.5,0,2.3,3.9,5,8.6L441.7,758L441.7,758z"/>
</g>
</svg>
