<?xml version="1.0" encoding="utf-8"?>
<!-- Generator: Adobe Illustrator 27.8.1, SVG Export Plug-In . SVG Version: 6.00 Build 0)  -->
<svg version="1.1" id="oj" xmlns="http://www.w3.org/2000/svg" xmlns:xlink="http://www.w3.org/1999/xlink" x="0px" y="0px"
	 viewBox="0 0 893.5 1020" style="enable-background:new 0 0 893.5 1020;" xml:space="preserve">
<style type="text/css">
	.st0{fill:#606060;}
	.st1{fill:#C7C8CA;}
</style>
<path class="st0" d="M788.3,515.5c-70-17.2-134.5,18.1-162.1,74.6v0.1L526.2,761c-1.8,3.1,0.8,7,4.4,6.4c9.4-1.6,19.7-0.9,30.2,3
	c18.9,7,34.1,29.6,34.1,49.7v198c0,1,0.8,1.8,1.8,1.8h295c1,0,1.8-0.8,1.8-1.8V650.9C893.5,587,850.3,530.7,788.3,515.5z"/>
<path class="st1" d="M441.7,758c2.8,4.8,7.3,4.8,10.1,0L888.4,8.6c2.8-4.8,0.5-8.6-5-8.6H495.1c-5.5,0-10,4.5-10,10v456.2
	c0,5.5-0.6,14.5-1.4,19.9c0,0-4.1,28.4-37,28.4s-37.6-28.4-37.6-28.4c-0.9-5.4-1.6-14.4-1.6-19.9V10c0-5.5-4.5-10-10-10H10
	C4.5,0,2.3,3.9,5,8.6L441.7,758L441.7,758z"/>
<g>
	<path class="st0" d="M188.5,761c-39.8,0-72.1,32.3-72.1,72c0,39.8,32.3,72,72.1,72s72.1-32.3,72.1-72
		C260.5,793.2,228.3,761,188.5,761z M188.5,866c-18.2,0-32.9-14.7-32.9-32.9c0-18.2,14.8-32.9,32.9-32.9c18.2,0,32.9,14.7,32.9,32.9
		C221.4,851.2,206.7,866,188.5,866z"/>
	<path class="st0" d="M188.5,711.7l16.4,1.1c12.2,1.6,23.7,5.1,34.5,10l0,0c6.7,3.1,13,6.7,18.9,10.9l0.1,0
		c9.4,6.6,17.9,14.6,25.1,23.6c1.1,1.4,2.3,2.9,3.3,4.4l0,0c5,6.9,9.3,14.2,12.7,22.1v0c0.4,1,0.8,1.9,1.3,2.9
		c3.6,8.8,6.3,18.1,7.7,27.8c0.9,6,1.4,12.2,1.4,18.5c0,5.3-0.3,10.4-1,15.5c-1.3,10.1-3.8,19.8-7.4,29c-0.2,0.5-0.4,0.9-0.6,1.4
		c-4.1,10.1-9.6,19.6-16.2,28.1c-0.3,0.4-0.7,0.9-1,1.3c-6.7,8.4-14.4,15.9-23.1,22.3l-0.1,0c-7.3,5.4-15.2,10-23.6,13.6l-0.1,0
		c-10,4.3-20.7,7.4-32,8.9h0c-5.3,0.7-10.8,1.1-16.3,1.1c-6,0-11.9-0.4-17.7-1.3h0c-10.2-1.5-19.9-4.2-29.1-8.1
		c-10.3-4.3-19.8-9.9-28.4-16.8l0,0c-7.5-5.9-14.3-12.7-20.2-20.3c-0.4-0.5-0.8-1-1.2-1.5c-6.4-8.4-11.7-17.6-15.7-27.5l-0.1-0.1
		c0-0.1-0.1-0.2-0.1-0.3c-4.9-12-7.8-25-8.6-38.5c-0.1-2.3-0.2-4.6-0.2-6.9s0.1-4.6,0.2-6.9c0.8-14.5,4.2-28.2,9.6-40.9
		c4.5-10.6,10.5-20.3,17.7-29.1c5.9-7.2,12.7-13.8,20.1-19.5l-1.3,0.7l-19.8-39.2c-15.3,10.8-28.8,24.1-39.6,39.4
		c-5.7,7.9-10.6,16.4-14.8,25.3c-7.9,16.7-13.1,35-14.9,54.2c-0.5,5.3-0.8,10.7-0.8,16.1c0,4.4,0.2,8.8,0.5,13.1
		c1.5,19.4,6.4,37.8,14.1,54.8v0c4,8.9,8.8,17.4,14.3,25.3C63.4,942,76.9,955.8,92.5,967c7.9,5.6,16.2,10.6,25,14.8
		c17.2,8.2,36,13.5,55.8,15.3c5,0.5,10.1,0.7,15.2,0.7c4.7,0,9.3-0.2,13.8-0.6c19.7-1.6,38.5-6.8,55.7-14.7
		c8.9-4.1,17.3-9,25.2-14.6c15.9-11.2,29.7-25.1,40.8-41c5.5-7.9,10.3-16.3,14.4-25.2c7.9-17.2,12.9-35.9,14.5-55.7
		c0.3-4.3,0.5-8.7,0.5-13c0-5.4-0.3-10.7-0.8-16c-1.9-19.6-7.2-38.1-15.3-55.1c-4.2-8.8-9.2-17.2-14.9-25.1
		c-11.1-15.4-24.8-28.9-40.5-39.6c-8-5.5-16.5-10.3-25.4-14.4c-16.7-7.6-34.9-12.5-54.1-14.1l-29.2,0.1l-1.1,19.5l-1.3,23.2v1.3
		L188.5,711.7z"/>
	<path class="st0" d="M172.1,688.4l-1.3,23.2v1.3c-10.1,1.5-19.7,4.2-28.8,8l1.1-0.6L119,683.6c16.7-7.8,35-12.9,54.2-14.6
		L172.1,688.4z"/>
	<g>
		<polygon class="st0" points="172.1,688.4 170.8,711.7 170.8,713 170.8,763.2 170.8,776.8 204.8,776.8 204.8,762.8 204.8,712.8 
			204.8,711.7 203.5,688.4 		"/>
		<rect x="170.8" y="889.2" class="st0" width="34.1" height="88.4"/>
	</g>
	<g>
		
			<rect x="258.3" y="839.3" transform="matrix(-0.5119 0.859 -0.859 -0.5119 1175.2527 1099.3413)" class="st0" width="34.1" height="88.4"/>
		
			<rect x="85.8" y="736.6" transform="matrix(-0.5119 0.859 -0.859 -0.5119 826.132 1092.1692)" class="st0" width="34.1" height="88.4"/>
	</g>
	<g>
		
			<rect x="258.7" y="737.3" transform="matrix(0.5043 0.8635 -0.8635 0.5043 811.6073 149.2783)" class="st0" width="34.1" height="88.4"/>
		
			<rect x="85.3" y="838.6" transform="matrix(0.5043 0.8635 -0.8635 0.5043 813.0424 349.223)" class="st0" width="34.1" height="88.4"/>
	</g>
	<g>
		<polygon class="st0" points="170.8,711.7 172.1,688.4 173.2,668.9 174.6,644.4 201,644.4 202.4,668.8 203.5,688.4 204.8,711.7 
			188.5,711.7 		"/>
		<polygon class="st0" points="204.8,952.6 170.8,952.6 174.6,1019.9 201,1019.9 		"/>
	</g>
	<g>
		<path class="st0" d="M143.1,720.3l-1.1,0.6c-9.8,4.1-18.9,9.3-27.1,15.7l-1.3,0.7l-19.8-39.2c7.9-5.6,16.3-10.5,25.2-14.6
			L143.1,720.3z"/>
		<path class="st0" d="M119,683.6c-8.9,4.1-17.3,9-25.2,14.6l-10.6-21l22.9-13.2L119,683.6z"/>
		<path class="st0" d="M141.9,720.9l-27.1,15.7C123.1,730.3,132.2,725,141.9,720.9z"/>
		<polygon class="st0" points="263.6,928.9 234,946 271,1002.3 293.9,989.1 		"/>
	</g>
	<g>
		<polygon class="st0" points="232.8,719 262.3,736.1 292.7,675.9 269.7,662.7 		"/>
		<polygon class="st0" points="112.3,927.7 141.8,944.7 104.9,1001.1 81.9,987.9 		"/>
	</g>
	<g>
		<polygon class="st0" points="67.3,814.5 67.3,848.6 0,844.8 0,818.3 		"/>
		<polygon class="st0" points="308.3,814.5 308.3,848.6 375.6,844.8 375.6,818.3 		"/>
	</g>
	<g>
		<polygon class="st0" points="300.7,785.9 283.6,756.4 343.8,726.1 357.1,749 		"/>
		<polygon class="st0" points="92,906.4 74.9,876.9 18.5,913.8 31.8,936.7 		"/>
	</g>
	<g>
		<polygon class="st0" points="92,756.6 74.9,786.1 18.5,749.1 31.8,726.2 		"/>
		<polygon class="st0" points="300.7,877 283.6,906.5 343.8,936.9 357.1,914 		"/>
	</g>
</g>
</svg>
