<?xml version="1.0" encoding="utf-8"?>
<!-- Generator: Adobe Illustrator 27.8.1, SVG Export Plug-In . SVG Version: 6.00 Build 0)  -->
<svg version="1.1" id="button" xmlns="http://www.w3.org/2000/svg" xmlns:xlink="http://www.w3.org/1999/xlink" x="0px" y="0px"
	 viewBox="0 0 893.9 1020" style="enable-background:new 0 0 893.9 1020;" xml:space="preserve">
<style type="text/css">
	.st0{fill:#138D00;}
	.st1{fill:#13C600;}
</style>
<g>
	<path class="st0" d="M442.1,758c2.8,4.8,7.3,4.8,10.1,0L888.8,8.6c2.8-4.8,0.5-8.6-5-8.6H495.5c-5.5,0-10,4.5-10,10v456.2
		c0,5.5-0.6,14.5-1.4,19.9c0,0-4.1,28.4-37,28.4s-37.6-28.4-37.6-28.4c-0.9-5.4-1.6-14.4-1.6-19.9V10c0-5.5-4.5-10-10-10H10.4
		c-5.5,0-7.7,3.9-5,8.6L442.1,758L442.1,758z"/>
	<g>
		<path class="st0" d="M187.8,644.5C84.1,644.5,0,728.5,0,832.2S84.1,1020,187.8,1020s187.8-84.1,187.8-187.8
			S291.5,644.5,187.8,644.5L187.8,644.5z M148,776.7c9,0,15.7,7.4,16.1,16.1c0.4,8.7-7.7,16.1-16.1,16.1c-9,0-15.7-7.4-16.1-16.1
			C131.5,784.1,139.6,776.7,148,776.7z M148.2,887.9c-9,0-15.7-7.4-16.1-16.1c-0.4-8.7,7.7-16.1,16.1-16.1c9,0,15.7,7.4,16.1,16.1
			C164.7,880.5,156.6,887.9,148.2,887.9z M226.4,887.9c-9,0-15.7-7.4-16.1-16.1c-0.4-8.7,7.7-16.1,16.1-16.1c9,0,15.7,7.4,16.1,16.1
			C242.9,880.5,234.8,887.9,226.4,887.9z M227,809.1c-9,0-15.7-7.4-16.1-16.1c-0.4-8.7,7.7-16.1,16.1-16.1c9,0,15.7,7.4,16.1,16.1
			C243.4,801.8,235.4,809.1,227,809.1z"/>
		<path class="st1" d="M187.8,669.2c-90.1,0-163.1,73-163.1,163.1s73,163.1,163.1,163.1s163.1-73,163.1-163.1
			S277.8,669.2,187.8,669.2L187.8,669.2z M148,776.7c9,0,15.7,7.4,16.1,16.1c0.4,8.7-7.7,16.1-16.1,16.1c-9,0-15.7-7.4-16.1-16.1
			C131.5,784.1,139.6,776.7,148,776.7L148,776.7z M148.2,887.9c-9,0-15.7-7.4-16.1-16.1c-0.4-8.7,7.7-16.1,16.1-16.1
			c9,0,15.7,7.4,16.1,16.1C164.7,880.5,156.6,887.9,148.2,887.9z M226.4,887.9c-9,0-15.7-7.4-16.1-16.1c-0.4-8.7,7.7-16.1,16.1-16.1
			c9,0,15.7,7.4,16.1,16.1C242.9,880.5,234.8,887.9,226.4,887.9z M227,809.1c-9,0-15.7-7.4-16.1-16.1c-0.4-8.7,7.7-16.1,16.1-16.1
			c9,0,15.7,7.4,16.1,16.1C243.4,801.7,235.4,809.1,227,809.1z"/>
	</g>
	<path class="st1" d="M788.7,515.5c-70-17.2-134.5,18.1-162.1,74.6c0,0,0,0.1,0,0.1L526.6,761c-1.8,3.1,0.8,7,4.4,6.4
		c9.4-1.6,19.7-0.9,30.2,3c18.9,7,34.1,29.6,34.1,49.7v198c0,1,0.8,1.8,1.8,1.8h295c1,0,1.8-0.8,1.8-1.8V650.9
		C893.9,587,850.7,530.7,788.7,515.5z"/>
</g>
</svg>
