<?xml version="1.0" encoding="utf-8"?>
<!-- Generator: Adobe Illustrator 27.8.1, SVG Export Plug-In . SVG Version: 6.00 Build 0)  -->
<svg version="1.1" id="oj" xmlns="http://www.w3.org/2000/svg" xmlns:xlink="http://www.w3.org/1999/xlink" x="0px" y="0px"
	 viewBox="0 0 893.5 1020" style="enable-background:new 0 0 893.5 1020;" xml:space="preserve">
<style type="text/css">
	.st0{fill:#FF5423;}
	.st1{fill:#FFEBD2;}
	.st2{fill:#FF6A04;}
</style>
<g>
	<g>
		<circle class="st0" cx="187.8" cy="832.2" r="187.8"/>
		<circle class="st1" cx="187.8" cy="832.2" r="168.6"/>
		<path class="st2" d="M139.5,685.7l45.2,127c0.7,1.9,4.8,2,5.5,0l48.7-127c0.4-1-0.4-1.9-1.8-2.3c-10.3-2.6-52.9-12-96,0
			C139.9,683.8,139.2,684.8,139.5,685.7L139.5,685.7z"/>
		<path class="st2" d="M139.5,978.8l45.2-127c0.7-1.9,4.8-2,5.5,0l48.7,127c0.4,0.9-0.4,1.9-1.8,2.3c-10.3,2.6-52.9,12-96,0
			C139.9,980.6,139.2,979.7,139.5,978.8L139.5,978.8z"/>
		<path class="st2" d="M43.2,880.6l127-45.2c1.9-0.7,2-4.8,0-5.5l-127-48.7c-1-0.4-1.9,0.4-2.3,1.8c-2.6,10.3-12,52.9,0,96
			C41.4,880.2,42.3,880.9,43.2,880.6L43.2,880.6z"/>
		<path class="st2" d="M332.9,880.6l-127-45.2c-1.9-0.7-2-4.8,0-5.5l127-48.7c1-0.4,1.9,0.4,2.3,1.8c2.6,10.3,12,52.9,0,96
			C334.8,880.2,333.8,880.9,332.9,880.6L332.9,880.6z"/>
		<path class="st2" d="M256.2,695.2l-57.6,121.8c-0.9,1.9,2,4.8,3.9,3.9l124.1-55.6c0.9-0.4,1.1-1.6,0.4-2.8
			c-5.5-9.2-29-45.8-68-67.7C257.8,694.2,256.6,694.3,256.2,695.2L256.2,695.2z"/>
		<path class="st2" d="M50.7,901l121.6-58.1c1.9-0.9,4.8,2,3.9,3.9l-55.1,124.3c-0.4,0.9-1.6,1.1-2.8,0.4
			c-9.2-5.4-45.9-28.8-68-67.7C49.7,902.6,49.8,901.4,50.7,901L50.7,901z"/>
		<path class="st2" d="M51.4,764.8l121.8,57.6c1.9,0.9,4.8-2,3.9-3.9l-55.6-124.1c-0.4-0.9-1.6-1.1-2.8-0.4
			c-9.2,5.5-45.8,29-67.7,68C50.4,763.3,50.5,764.4,51.4,764.8L51.4,764.8z"/>
		<path class="st2" d="M257.2,969.8l-58.1-121.6c-0.9-1.9,2-4.8,3.9-3.9l124.3,55.1c0.9,0.4,1.1,1.6,0.4,2.8
			c-5.4,9.2-28.8,45.9-67.7,68C258.8,970.9,257.6,970.7,257.2,969.8L257.2,969.8z"/>
	</g>
	<path class="st2" d="M788.3,515.5c-70-17.2-134.5,18.1-162.1,74.6c0,0,0,0.1,0,0.1L526.2,761c-1.8,3.1,0.8,7,4.4,6.4
		c9.4-1.6,19.7-0.9,30.2,3c18.9,7,34.1,29.6,34.1,49.7v198c0,1,0.8,1.8,1.8,1.8h295c1,0,1.8-0.8,1.8-1.8V650.9
		C893.5,587,850.3,530.7,788.3,515.5z"/>
	<path class="st2" d="M441.7,758c2.8,4.8,7.3,4.8,10.1,0L888.4,8.6c2.8-4.8,0.5-8.6-5-8.6H495.1c-5.5,0-10,4.5-10,10v456.2
		c0,5.5-0.6,14.5-1.4,19.9c0,0-4.1,28.4-37,28.4s-37.6-28.4-37.6-28.4c-0.9-5.4-1.6-14.4-1.6-19.9V10c0-5.5-4.5-10-10-10H10
		C4.5,0,2.3,3.9,5,8.6L441.7,758L441.7,758z"/>
</g>
</svg>
