<?xml version="1.0" encoding="UTF-8"?>
<svg id="button" xmlns="http://www.w3.org/2000/svg" viewBox="0 0 1500 1500">
  <defs>
    <style>
      .cls-1 {
        fill: #13c600;
      }

      .cls-1, .cls-2 {
        stroke-width: 0px;
      }

      .cls-2 {
        fill: #138d00;
      }
    </style>
  </defs>
  <path class="cls-2" d="m740.8,980.31c2.77,4.75,7.3,4.75,10.07,0l436.66-749.36c2.77-4.75.53-8.64-4.97-8.64h-388.32c-5.5,0-10,4.5-10,10v456.24c0,5.5-.64,14.45-1.43,19.9,0,0-4.11,28.38-36.98,28.38s-37.59-28.42-37.59-28.42c-.9-5.43-1.64-14.36-1.64-19.86V232.31c0-5.5-4.5-10-10-10h-387.5c-5.5,0-7.73,3.89-4.97,8.64l436.66,749.36Z"/>
  <g>
    <path class="cls-2" d="m486.47,866.78c-103.7,0-187.77,84.07-187.77,187.77s84.07,187.77,187.77,187.77,187.77-84.07,187.77-187.77-84.07-187.77-187.77-187.77Zm-39.8,132.25c9.01,0,15.68,7.36,16.07,16.07.39,8.68-7.67,16.07-16.07,16.07-9.01,0-15.68-7.36-16.07-16.07-.39-8.68,7.67-16.07,16.07-16.07Zm.27,111.15c-9.01,0-15.68-7.36-16.07-16.07-.39-8.68,7.67-16.07,16.07-16.07,9.01,0,15.68,7.36,16.07,16.07.39,8.68-7.67,16.07-16.07,16.07Zm78.19,0c-9.01,0-15.68-7.36-16.07-16.07-.39-8.68,7.67-16.07,16.07-16.07,9.01,0,15.68,7.36,16.07,16.07.39,8.68-7.67,16.07-16.07,16.07Zm.54-78.73c-9.01,0-15.68-7.36-16.07-16.07-.39-8.68,7.67-16.07,16.07-16.07,9.01,0,15.68,7.36,16.07,16.07.39,8.68-7.67,16.07-16.07,16.07Z"/>
    <path class="cls-1" d="m486.47,891.48c-90.06,0-163.07,73.01-163.07,163.07s73.01,163.07,163.07,163.07,163.07-73.01,163.07-163.07-73.01-163.07-163.07-163.07Zm-39.8,107.55c9.01,0,15.68,7.36,16.07,16.07.39,8.68-7.67,16.07-16.07,16.07-9.01,0-15.68-7.36-16.07-16.07-.39-8.68,7.67-16.07,16.07-16.07Zm.27,111.15c-9.01,0-15.68-7.36-16.07-16.07-.39-8.68,7.67-16.07,16.07-16.07,9.01,0,15.68,7.36,16.07,16.07.39,8.68-7.67,16.07-16.07,16.07Zm78.19,0c-9.01,0-15.68-7.36-16.07-16.07-.39-8.68,7.67-16.07,16.07-16.07,9.01,0,15.68,7.36,16.07,16.07.39,8.68-7.67,16.07-16.07,16.07Zm.54-78.73c-9.01,0-15.68-7.36-16.07-16.07-.39-8.68,7.67-16.07,16.07-16.07,9.01,0,15.68,7.36,16.07,16.07.39,8.68-7.67,16.07-16.07,16.07Z"/>
  </g>
  <path class="cls-1" d="m1087.36,737.76c-70.04-17.16-134.46,18.1-162.12,74.63-.02.03-.03.07-.05.1l-99.84,170.87c-1.83,3.13.81,7.01,4.38,6.39,9.44-1.64,19.72-.86,30.17,3.02,18.86,7,34.13,29.6,34.13,49.72v198.03c0,.99.8,1.79,1.79,1.79h294.96c.99,0,1.79-.8,1.79-1.79v-367.31c0-63.89-43.16-120.25-105.21-135.45Z"/>
</svg>